<?xml version="1.0" encoding="UTF-8" standalone="no"?>
<!-- Generator: Adobe Illustrator 23.0.2, SVG Export Plug-In . SVG Version: 6.00 Build 0)  -->

<svg
   version="1.1"
   id="Layer_1"
   x="0px"
   y="0px"
   viewBox="0 0 1504 460"
   style="enable-background:new 0 0 1504 460;"
   xml:space="preserve"
   sodipodi:docname="wordmark_white.svg"
   inkscape:version="1.1 (c68e22c387, 2021-05-23)"
   xmlns:inkscape="http://www.inkscape.org/namespaces/inkscape"
   xmlns:sodipodi="http://sodipodi.sourceforge.net/DTD/sodipodi-0.dtd"
   xmlns="http://www.w3.org/2000/svg"
   xmlns:svg="http://www.w3.org/2000/svg"><defs
   id="defs35" /><sodipodi:namedview
   id="namedview33"
   pagecolor="#ffffff"
   bordercolor="#666666"
   borderopacity="1.0"
   inkscape:pageshadow="2"
   inkscape:pageopacity="0.0"
   inkscape:pagecheckerboard="0"
   showgrid="false"
   inkscape:zoom="1.4654255"
   inkscape:cx="267.1579"
   inkscape:cy="207.10708"
   inkscape:window-width="1680"
   inkscape:window-height="987"
   inkscape:window-x="-8"
   inkscape:window-y="-8"
   inkscape:window-maximized="1"
   inkscape:current-layer="layer2" />
<style
   type="text/css"
   id="style2">
	.st0{fill:#E04949;}
</style>
<g
   inkscape:groupmode="layer"
   id="layer2"
   inkscape:label="Letters"><g
     id="g30"
     style="enable-background:new 0 0 1504 460;fill:#ffffff">
	
	<path
   d="M634.4,121.6c4.3-1.4,9.7,1.7,9.8,6.3c0.1,15.7,0,31.4,0,47.1c8,0,15.9,0,23.9,0c3.9-0.2,7.9,2.9,7.9,7   c0.6,4.1-2.9,8.2-7,8.2c-8.2,0.1-16.5,0-24.7,0c0,42.3,0,84.5,0,126.8c0.2,5.8-7.5,9-11.9,5.8c-2.2-1.4-3.5-4.1-3.3-6.7   c0-41.9,0-83.9,0-125.8c-6.7,0-13.4,0.1-20,0c-4.6,0.2-8.4-4.8-7.3-9.2c0.5-3.4,3.8-6,7.2-6c6.7-0.1,13.4,0,20.1-0.1   c0-15.4-0.1-30.7,0-46.1C628.9,125.6,631.1,122.4,634.4,121.6z"
   id="path12"
   style="fill:#ffffff" />
	<path
   d="M970.4,121.7c4.4-1.7,10.2,1.4,10.3,6.3c0.1,62,0,124,0,186c0.3,3.2-0.1,6.9-3.1,8.7c-4.9,3.7-13-0.3-12.4-6.6   c-0.1-62,0-124.1,0-186.1C964.9,126.4,966.9,122.7,970.4,121.7z"
   id="path14"
   style="fill:#ffffff" />
	<path
   d="M1185.5,129c-0.3-4.8,4.7-8.8,9.3-7.6c3.5,0.6,6,4.1,5.7,7.6c-0.2,25.1,0.1,50.2,0.2,75.3c9.8-12.3,23.2-21.6,38.3-26.1   c19.6-5.8,41.5-3.6,59.3,6.5c12.7,7.1,23.3,18,29.9,31c8.9,17.1,10.6,37.7,5.3,56.2c-5.3,17.9-17.4,33.7-33.5,43.2   c-17,10.4-38.2,13.3-57.5,8.5c-16.5-4.2-31.4-14.1-41.8-27.5c-0.3,7.3-0.2,14.5-0.3,21.8c-0.4,5.6-7.9,8.1-12,4.7   c-2-1.5-3-4-2.9-6.5C1185.5,253.7,1185.5,191.4,1185.5,129 M1253.5,190.7c-15.5,1.8-30.1,10-39.7,22.2   c-13.1,16.2-16.6,39.3-9.1,58.7c5.8,15.7,18.6,28.5,34.1,34.7c17.3,7.1,38,5.3,53.8-4.7c17.4-10.4,28.7-30.3,28.7-50.6   c0.4-18.8-8.7-37.4-23.7-48.7C1285.1,192.9,1269,188.8,1253.5,190.7z"
   id="path16"
   style="fill:#ffffff" />
	
	<path
   d="M530.3,175.3c12.5-1.9,25.8-0.6,37.1,5.2c7.3,4,14.1,9.8,17.3,17.6c2.3,5.3-4.9,10.9-9.4,7.6c-3.9-4.8-8.2-9.4-13.6-12.5   c-10-5.9-22.5-6.2-33.5-3.4c-7.4,1.8-14.6,6.1-18.1,13.1c-3.6,7.8-2.7,18.1,3.7,24.2c8.7,9,21.4,11.4,32.8,15.3   c13.8,4.5,28.7,9,38.3,20.6c7.1,8.1,8.5,19.8,5.9,30c-3.1,11.8-12.1,21.5-23,26.8c-14.2,7.2-30.9,7.3-46.1,3.6   c-13.4-3.5-26.5-11.9-32.1-25.1c-1.8-3.9,1-9,5.3-9.4c3.8-0.6,7.4,1.8,9.1,5.1c5,8.6,13.8,14.6,23.5,16.6   c11.2,2.5,23.5,2.2,33.8-3.2c6.6-3.4,12.4-8.9,14.8-16c2-6.2,1.5-13.5-2.5-18.9c-4.1-5.8-10.6-9.4-17-12.1   c-14.9-6-31.2-8.5-45.1-16.9c-8-4.7-15.2-11.8-17.9-20.9c-2.5-9.7-1.3-20.8,4.8-29C505.7,183,518,177.2,530.3,175.3z"
   id="path20"
   style="fill:#ffffff" />
	<path
   d="M722.5,185.5c24.4-14.9,57.2-13.8,80.7,2.3c20.6,13.8,33.9,38.2,33.3,63.1c-0.1,3.8-3.8,6.9-7.5,6.6   c-42.2,0-84.5,0-126.7,0c1.3,16.7,10.4,32.5,23.9,42.3c8.7,6.4,19.1,10.5,29.9,11.3c16.4,1.4,33.5-4.1,45.3-15.8   c2.5-2.4,4.2-5.9,7.8-6.6c6.5-1.9,11.9,7.4,7.7,12.3c-11,12.5-26.1,21.6-42.7,24.1c-14.9,2.3-30.7,0.7-44.4-5.8   c-15.3-7-28.2-19.1-35.9-34c-8.4-15.6-10.5-34.2-6.7-51.4C691.5,213.8,704.7,195.8,722.5,185.5 M729.7,198.7   c-15.8,9.8-26.5,27.3-27.9,45.8c39.7,0,79.4,0,119.1,0c-0.9-11.3-5.1-22.3-12.1-31.3c-10.2-13.3-26.1-22-42.7-23.2   C753.4,188.9,740.4,192,729.7,198.7z"
   id="path22"
   style="fill:#ffffff" />
	<path
   d="M859,181.9c-0.1-4.8,5.4-8.4,9.9-6.8c3.4,0.9,5.6,4.4,5.3,7.9c0,7.8,0,15.6,0,23.4c15.1-20.3,40.3-32.9,65.7-31.5   c5.6,0.3,8.2,7.8,5,12c-1.8,2.5-5,3.4-7.9,3.2c-17.7-0.2-35.1,8.1-46.8,21.2c-9.8,11.1-15.9,25.8-16,40.7c0,20.3,0,40.7,0,61.1   c0.1,3.3-0.1,7.2-3,9.3c-4.3,4-12.2,0.5-12.3-5.3C859,272,859,226.9,859,181.9z"
   id="path24"
   style="fill:#ffffff" />
	<path
   d="M1056.2,178.4c25.5-8.2,55-1.4,74.3,17.2c12.9,12,21.3,28.8,23.1,46.3c0.7,5.7,0.3,11.4,0.4,17.1c0,19,0,38.1,0,57.1   c0.4,5.2-5.1,9.2-10,7.7c-3.3-1-5.4-4.4-5.3-7.8c-0.1-7,0-14.1,0-21.1c-10,13.4-24.4,23.6-40.5,28.3c-26.9,8.1-57.6-1.5-76.1-22.3   c-10.8-12.1-17.7-27.6-18.9-43.8c-1.3-14.7,1.8-29.8,9-42.8C1021.5,197.2,1037.7,184.2,1056.2,178.4 M1070.6,190.8   c-20.8,2.5-39.6,16.8-47.6,36.2c-6.8,15.9-6.3,34.9,1.6,50.3c7.3,15,21.3,26.5,37.2,31.2c13.9,3.9,29.2,3,42.3-3.4   c22.9-10.4,37.5-36.2,34.3-61.1c-1.8-17-11.2-33.3-25.4-42.9C1100.8,192.5,1085.3,188.8,1070.6,190.8z"
   id="path26"
   style="fill:#ffffff" />
	<path
   d="M1391.2,175.3c16.6-2.6,35.2,0.7,47.6,12.9c3,3.4,6.4,7,7.2,11.7c0.9,5.7-8.2,9.8-11.2,4.3c-5.3-6.7-12.5-12.2-20.8-14.5   c-8.9-2.4-18.4-1.7-27.2,0.8c-7.5,2.2-14.4,7.6-16.9,15.2c-1.8,6.4-1.3,13.9,2.9,19.3c5.2,7,13.6,10.5,21.6,13.3   c10.1,3.3,20.3,6.2,30.2,10.1c9.3,3.8,18.3,9.4,23.8,18.1c8.5,13.9,4.6,33.1-6.9,44.1c-13.5,13.8-34.3,17.4-52.7,14   c-15.6-2.5-31.7-11.2-38.2-26.3c-1.8-3.9,0.9-9.1,5.3-9.5c4.1-0.7,7.7,2.2,9.5,5.6c4.7,7.8,12.6,13.4,21.5,15.6   c11.6,3,24.6,2.8,35.4-2.8c6.5-3.2,12-8.7,14.6-15.5c2.5-7,1.6-15.6-3.6-21.1c-6.1-7-15-10.4-23.5-13.3   c-13.3-4.3-27.2-7.5-39.1-15.1c-7.5-4.8-14.2-11.9-16.3-20.8c-2.3-9.9-0.6-21,5.9-29.1C1367.6,182.6,1379.4,177.2,1391.2,175.3z"
   id="path28"
   style="fill:#ffffff" />
</g><rect
     style="fill:#ffffff;fill-rule:evenodd"
     id="rect532"
     width="350.06897"
     height="212.90742"
     x="81.887474"
     y="117.37206" /></g>

<g
   inkscape:groupmode="layer"
   id="layer1"
   inkscape:label="Dot"
   style="display:inline"><g
     id="g8">
	<path
   class="st0"
   d="m 238.5,15.8 c 6.1,-0.9 12.3,-0.8 18.5,-0.8 21.6,-0.5 43.3,3 63.9,9.2 39.4,12 75,35.8 101.3,67.4 31.1,37 49.3,84.9 49.7,133.3 1.8,59.6 -23.5,119.2 -67.1,159.9 -37.2,35.4 -87.5,56.6 -138.8,58.1 -8.9,-0.1 -17.9,0.4 -26.8,-0.7 -27.7,-2.3 -54.9,-10.2 -79.5,-23 -32.9,-17 -61.2,-42.7 -81.3,-73.7 -19,-29.2 -30.8,-63.1 -33.7,-97.9 -1.1,-9.2 -0.6,-18.5 -0.6,-27.8 1.3,-34.5 11.3,-68.5 28.6,-98.3 C 92.5,87.2 122.1,58.6 157,40 182.2,26.6 210.1,18.2 238.5,15.8 m -61.4,104.4 c -24.2,2 -47.6,12.9 -64.4,30.4 -17.3,17.8 -28,41.8 -29.4,66.5 -1.3,20.1 3.6,40.5 13.7,57.8 13.2,23 35.9,40.3 61.4,47.4 35.2,9.6 75.7,-0.5 100.9,-27.2 3.4,-3.9 3.8,-10.1 0.9,-14.3 -3.4,-5.2 -11.3,-6.7 -16.4,-3.3 -2.9,2.1 -5.3,4.8 -8.1,7 -18.1,15.2 -43.4,20.4 -66.4,15.8 -20.6,-4.4 -39,-17.6 -50.1,-35.5 -15.7,-24.8 -16.1,-58.4 -0.4,-83.3 11.2,-18.8 30.8,-32.3 52.3,-36.3 25.1,-4.9 52.3,3.1 70.4,21.3 4.4,5.1 13.2,5.5 17.7,0.4 4,-3.9 4.5,-10.7 1.1,-15.2 -21.1,-22.4 -52.7,-34.3 -83.2,-31.5 m 134.3,66.2 c -13.1,8.1 -23.6,20.3 -29.6,34.5 -6.5,15.3 -7.7,32.9 -3.4,48.9 5.2,19.3 18.2,36.3 35.6,46.1 14.6,8.5 32.3,11.8 49,9 15.1,-2.5 28.9,-10.5 39.8,-21 0,3.3 -0.3,6.6 0.2,9.9 0.7,4.7 4.4,9.1 9.2,9.9 6.8,1.6 14.2,-4 14.3,-11 0.1,-20.6 0,-41.2 0,-61.9 0.5,-21.3 -8.9,-42.6 -24.8,-56.8 -11.3,-10.1 -25.7,-16.9 -40.8,-18.7 -17,-2.2 -34.9,1.9 -49.5,11.1 z"
   id="path4" />
	<path
   class="st0"
   d="m 340.5,199.8 c 11.9,-2.5 24.8,-0.8 35.5,5.1 13.7,7.1 23.4,20.9 26.1,36 1.9,11.2 0.5,23.2 -4.9,33.3 -7.2,14.1 -21.1,24.4 -36.7,27.2 -10.6,1.6 -21.8,0.5 -31.4,-4.4 -15.3,-7.3 -26.4,-22.5 -28.8,-39.2 -2,-13.5 1.6,-27.8 9.9,-38.7 7.3,-9.8 18.4,-16.7 30.3,-19.3 z"
   id="path6" />
</g></g></svg>
