<svg xmlns="http://www.w3.org/2000/svg" xmlns:xlink="http://www.w3.org/1999/xlink" width="135" zoomAndPan="magnify" viewBox="0 0 101.25 30.000001" height="40" preserveAspectRatio="xMidYMid meet" version="1.0"><defs><g/><clipPath id="680227d819"><path d="M 7.636719 2 L 33.039062 2 L 33.039062 29.03125 L 7.636719 29.03125 Z M 7.636719 2 " clip-rule="nonzero"/></clipPath></defs><path fill="#000000" d="M 28.953125 9.421875 L 27.097656 9.976562 C 25.976562 10.3125 25.261719 10.550781 25.292969 10.582031 C 25.324219 10.609375 26.039062 10.96875 26.886719 11.386719 L 28.40625 12.617188 L 32.640625 10.941406 C 32.640625 10.921875 32.234375 10.746094 31.742188 10.546875 C 31.25 10.351562 30.421875 10.015625 29.898438 9.804688 Z M 28.953125 9.421875 " fill-opacity="1" fill-rule="nonzero"/><g clip-path="url(#680227d819)"><path fill="#000000" d="M 21.890625 2.238281 C 21.859375 2.242188 21.828125 2.253906 21.796875 2.261719 L 7.757812 6.980469 C 7.730469 7.03125 7.691406 7.246094 7.667969 7.296875 C 7.65625 7.332031 7.65625 7.351562 7.652344 7.367188 C 7.648438 7.402344 7.644531 7.421875 7.644531 7.4375 L 7.644531 7.484375 C 7.644531 7.503906 7.648438 7.507812 7.648438 7.515625 C 7.652344 7.535156 7.65625 7.550781 7.65625 7.570312 C 7.664062 7.605469 7.671875 7.652344 7.683594 7.714844 L 10.136719 21.503906 C 10.15625 21.617188 10.222656 21.730469 10.3125 21.804688 L 10.464844 21.929688 C 13.328125 24.167969 15.972656 26.5625 18.84375 28.824219 C 18.882812 28.855469 18.914062 28.882812 18.941406 28.902344 C 18.957031 28.914062 18.96875 28.921875 18.984375 28.933594 C 18.996094 28.9375 19.003906 28.949219 19.023438 28.960938 C 19.035156 28.96875 19.054688 28.972656 19.082031 28.984375 C 19.109375 28.996094 19.125 29.027344 19.285156 29.023438 L 19.285156 29.027344 L 19.296875 29.027344 L 19.296875 29.023438 C 19.308594 29.019531 19.433594 29.007812 19.488281 28.980469 C 19.546875 28.953125 19.589844 28.917969 19.625 28.882812 L 32.921875 21.539062 C 33.03125 21.394531 33.007812 21.367188 33.015625 21.339844 C 33.023438 21.3125 33.023438 21.296875 33.023438 21.28125 C 33.027344 21.253906 33.027344 21.234375 33.03125 21.210938 C 33.03125 21.167969 33.03125 21.117188 33.035156 21.058594 L 32.691406 11.34375 L 32.671875 10.929688 L 32.398438 10.984375 L 28.414062 12.550781 C 28.359375 12.332031 28.351562 12.300781 28.40625 12.195312 L 30.160156 9.964844 C 30.148438 9.933594 31.707031 9.183594 31.695312 9.152344 C 31.554688 8.707031 32.136719 8.738281 32.128906 8.253906 L 31.777344 5.59375 L 22.085938 2.257812 C 22.023438 2.238281 21.957031 2.234375 21.890625 2.242188 Z M 21.890625 2.238281 " fill-opacity="1" fill-rule="nonzero"/></g><path fill="#000000" d="M 21.945312 0 C 21.929688 0 21.910156 0.00390625 21.898438 0.0117188 L 18.96875 1.09375 C 18.902344 1.117188 18.863281 1.164062 18.851562 1.234375 C 18.84375 1.304688 18.863281 1.359375 18.917969 1.402344 L 20.902344 2.988281 C 20.953125 3.027344 21.003906 3.035156 21.0625 3.019531 L 23.941406 2.074219 C 24.007812 2.054688 24.046875 2.011719 24.0625 1.945312 C 24.078125 1.878906 24.058594 1.820312 24.007812 1.773438 L 22.078125 0.0429688 C 22.039062 0.0117188 21.996094 -0.00390625 21.945312 0 Z M 21.945312 0 " fill-opacity="1" fill-rule="nonzero"/><path fill="#000000" d="M 14.519531 5.058594 L 14.789062 7.976562 L 11.929688 6.039062 L 12.128906 3.332031 Z M 14.519531 5.058594 " fill-opacity="1" fill-rule="nonzero"/><path fill="#000000" d="M 19.375 3.289062 L 14.519531 5.058594 L 14.789062 7.976562 L 19.648438 6.207031 Z M 19.375 3.289062 " fill-opacity="1" fill-rule="nonzero"/><path fill="#000000" d="M 19.71875 7.238281 L 19.980469 10.058594 L 16.554688 9.191406 L 16.296875 6.371094 Z M 19.71875 7.238281 " fill-opacity="1" fill-rule="nonzero"/><path fill="#000000" d="M 19.71875 7.238281 L 19.980469 10.058594 L 23.492188 7.714844 L 23.230469 4.894531 Z M 19.71875 7.238281 " fill-opacity="1" fill-rule="nonzero"/><path fill="#000000" d="M 18.867188 1.28125 L 21.015625 2.847656 L 21.261719 5.394531 L 18.425781 3.558594 Z M 18.867188 1.28125 " fill-opacity="1" fill-rule="nonzero"/><path fill="#000000" d="M 21.015625 2.847656 L 21.261719 5.394531 L 23.222656 4.296875 L 24.046875 1.898438 Z M 21.015625 2.847656 " fill-opacity="1" fill-rule="nonzero"/><path fill="#000000" d="M 24.550781 2.207031 C 24.539062 2.207031 24.523438 2.210938 24.511719 2.214844 L 21.476562 3.332031 C 21.40625 3.359375 21.363281 3.414062 21.355469 3.488281 C 21.347656 3.566406 21.375 3.625 21.441406 3.667969 L 24.007812 5.386719 C 24.0625 5.421875 24.121094 5.425781 24.183594 5.398438 L 27.578125 4.011719 C 27.652344 3.980469 27.6875 3.925781 27.691406 3.847656 C 27.691406 3.765625 27.660156 3.710938 27.589844 3.671875 L 24.660156 2.226562 C 24.625 2.207031 24.589844 2.199219 24.550781 2.207031 Z M 24.550781 2.207031 " fill-opacity="1" fill-rule="nonzero"/><path fill="#000000" d="M 17.351562 2.234375 C 17.339844 2.234375 17.328125 2.234375 17.316406 2.238281 L 12.304688 3.105469 C 12.128906 3.136719 12.0625 3.402344 12.199219 3.515625 L 14.378906 5.242188 C 14.4375 5.289062 14.527344 5.304688 14.601562 5.277344 L 19.421875 4.027344 C 19.511719 3.992188 19.574219 3.902344 19.574219 3.8125 C 19.578125 3.71875 19.515625 3.625 19.429688 3.589844 L 17.441406 2.253906 C 17.414062 2.242188 17.382812 2.234375 17.351562 2.234375 Z M 17.351562 2.234375 " fill-opacity="1" fill-rule="nonzero"/><path fill="#000000" d="M 27.507812 3.839844 L 27.75 6.472656 L 24.355469 7.859375 L 24.113281 5.226562 Z M 27.507812 3.839844 " fill-opacity="1" fill-rule="nonzero"/><path fill="#000000" d="M 28.121094 3.109375 C 28.09375 3.109375 28.066406 3.117188 28.039062 3.132812 L 24.925781 5.039062 C 24.859375 5.082031 24.832031 5.140625 24.84375 5.214844 C 24.855469 5.292969 24.902344 5.339844 24.976562 5.355469 L 28.222656 6.082031 C 28.265625 6.09375 28.304688 6.085938 28.34375 6.0625 L 31.96875 3.988281 C 32.039062 3.949219 32.0625 3.886719 32.046875 3.808594 C 32.03125 3.730469 31.984375 3.683594 31.90625 3.671875 L 28.15625 3.113281 C 28.144531 3.109375 28.132812 3.109375 28.121094 3.109375 Z M 28.121094 3.109375 " fill-opacity="1" fill-rule="nonzero"/><path fill="#000000" d="M 28.257812 5.914062 L 31.890625 3.777344 C 31.949219 3.785156 31.992188 3.722656 32.035156 3.804688 L 32.148438 8.765625 C 32.152344 8.941406 32.164062 9.0625 31.960938 9.15625 L 28.691406 11.261719 Z M 28.257812 5.914062 " fill-opacity="1" fill-rule="nonzero"/><path fill="#ffffff" d="M 21.957031 0.179688 L 19.03125 1.261719 L 21.011719 2.847656 L 23.890625 1.910156 Z M 21.957031 0.179688 " fill-opacity="1" fill-rule="nonzero"/><path fill="#ffffff" d="M 8.148438 7.445312 C 8.140625 7.453125 8.320312 8.5 8.546875 9.769531 C 8.902344 11.769531 8.972656 12.09375 9.058594 12.160156 C 9.175781 12.25 11.28125 13.332031 11.332031 13.328125 C 11.355469 13.328125 11.210938 12.289062 11.015625 11.019531 C 10.820312 9.75 10.644531 8.683594 10.628906 8.648438 C 10.601562 8.585938 8.171875 7.410156 8.148438 7.445312 Z M 8.148438 7.445312 " fill-opacity="1" fill-rule="nonzero"/><path fill="#ffffff" d="M 11.027344 8.789062 L 11.039062 8.964844 C 11.046875 9.0625 11.210938 10.136719 11.40625 11.351562 L 11.757812 13.5625 L 13.089844 14.242188 C 13.820312 14.617188 14.421875 14.921875 14.425781 14.917969 C 14.425781 14.914062 14.292969 13.832031 14.128906 12.515625 L 13.828125 10.117188 L 12.425781 9.453125 Z M 11.027344 8.789062 " fill-opacity="1" fill-rule="nonzero"/><path fill="#ffffff" d="M 27.679688 7.878906 C 27.359375 7.960938 22.820312 9.679688 22.765625 9.746094 C 22.75 9.765625 22.820312 10.582031 22.929688 11.558594 C 23.035156 12.535156 23.152344 13.628906 23.183594 13.988281 C 23.214844 14.347656 23.265625 14.636719 23.289062 14.632812 C 23.3125 14.628906 24.386719 14.1875 25.675781 13.652344 C 26.964844 13.117188 28.027344 12.664062 28.039062 12.648438 C 28.074219 12.601562 27.738281 7.910156 27.695312 7.878906 C 27.695312 7.875 27.6875 7.875 27.679688 7.878906 Z M 27.679688 7.878906 " fill-opacity="1" fill-rule="nonzero"/><path fill="#ffffff" d="M 14.171875 10.285156 L 14.492188 12.675781 C 14.734375 14.472656 14.832031 15.085938 14.886719 15.132812 C 14.976562 15.210938 17.699219 16.613281 17.757812 16.609375 C 17.777344 16.609375 17.671875 15.734375 17.519531 14.667969 C 17.367188 13.597656 17.226562 12.492188 17.207031 12.207031 L 17.167969 11.6875 L 17.019531 11.65625 C 16.941406 11.636719 16.335938 11.355469 15.675781 11.023438 C 15.015625 10.695312 14.410156 10.394531 14.324219 10.355469 Z M 14.171875 10.285156 " fill-opacity="1" fill-rule="nonzero"/><path fill="#ffffff" d="M 22.332031 9.917969 C 22.085938 9.953125 17.65625 11.695312 17.605469 11.777344 C 17.5625 11.847656 17.628906 12.429688 17.894531 14.285156 C 18.082031 15.617188 18.257812 16.703125 18.277344 16.699219 C 18.300781 16.699219 19.339844 16.273438 20.589844 15.753906 C 21.835938 15.238281 22.875 14.789062 22.894531 14.761719 C 22.914062 14.734375 22.820312 13.746094 22.6875 12.5625 C 22.550781 11.382812 22.4375 10.300781 22.433594 10.160156 C 22.425781 9.941406 22.410156 9.910156 22.332031 9.917969 Z M 22.332031 9.917969 " fill-opacity="1" fill-rule="nonzero"/><path fill="#ffffff" d="M 9.097656 12.648438 C 9.066406 12.691406 9.757812 16.648438 9.835938 16.875 C 9.882812 17.007812 10.09375 17.167969 11.011719 17.75 L 12.132812 18.464844 L 12.042969 17.726562 C 11.992188 17.320312 11.832031 16.269531 11.683594 15.390625 L 11.417969 13.789062 L 10.269531 13.203125 C 9.640625 12.878906 9.113281 12.628906 9.097656 12.648438 Z M 9.097656 12.648438 " fill-opacity="1" fill-rule="nonzero"/><path fill="#ffffff" d="M 11.832031 14.023438 C 11.828125 14.035156 11.984375 15.09375 12.183594 16.375 C 12.460938 18.175781 12.558594 18.71875 12.621094 18.761719 C 12.664062 18.796875 13.246094 19.171875 13.917969 19.597656 L 15.140625 20.371094 L 15.011719 19.226562 C 14.9375 18.59375 14.796875 17.46875 14.695312 16.722656 L 14.507812 15.367188 L 13.175781 14.683594 C 12.441406 14.308594 11.839844 14.011719 11.832031 14.023438 Z M 11.832031 14.023438 " fill-opacity="1" fill-rule="nonzero"/><path fill="#ffffff" d="M 32.359375 11.285156 C 32.296875 11.292969 28.457031 12.867188 28.433594 12.894531 C 28.421875 12.910156 28.757812 17.898438 28.78125 18.070312 C 28.789062 18.128906 28.820312 18.15625 28.855469 18.136719 C 28.890625 18.117188 29.695312 17.765625 30.644531 17.355469 C 31.59375 16.941406 32.398438 16.582031 32.433594 16.554688 C 32.472656 16.519531 32.480469 15.707031 32.457031 14.0625 C 32.433594 12.722656 32.414062 11.546875 32.417969 11.449219 C 32.417969 11.335938 32.398438 11.277344 32.359375 11.285156 Z M 32.359375 11.285156 " fill-opacity="1" fill-rule="nonzero"/><path fill="#ffffff" d="M 28.066406 13.042969 L 25.707031 14.019531 C 24.410156 14.558594 23.335938 15.007812 23.328125 15.023438 C 23.304688 15.054688 23.734375 19.121094 23.832031 19.847656 L 23.894531 20.300781 L 26.144531 19.320312 C 27.382812 18.78125 28.40625 18.320312 28.421875 18.300781 C 28.445312 18.269531 28.144531 13.625 28.09375 13.234375 Z M 28.066406 13.042969 " fill-opacity="1" fill-rule="nonzero"/><path fill="#ffffff" d="M 14.886719 15.570312 C 14.871094 15.574219 15.023438 16.722656 15.226562 18.125 L 15.589844 20.671875 L 17.046875 21.589844 L 18.5 22.507812 L 18.433594 21.824219 C 18.402344 21.445312 18.246094 20.214844 18.089844 19.09375 L 17.804688 17.050781 L 16.355469 16.308594 C 15.5625 15.902344 14.898438 15.570312 14.886719 15.570312 Z M 14.886719 15.570312 " fill-opacity="1" fill-rule="nonzero"/><path fill="#ffffff" d="M 22.945312 15.195312 C 22.921875 15.175781 18.335938 17.054688 18.316406 17.089844 C 18.3125 17.097656 18.460938 18.304688 18.648438 19.769531 C 18.984375 22.402344 18.992188 22.4375 19.089844 22.394531 C 19.144531 22.375 20.164062 21.925781 21.359375 21.40625 L 23.53125 20.460938 L 23.484375 19.894531 C 23.402344 18.914062 22.976562 15.21875 22.945312 15.195312 Z M 22.945312 15.195312 " fill-opacity="1" fill-rule="nonzero"/><path fill="#ffffff" d="M 9.957031 17.574219 C 9.957031 17.574219 9.957031 17.578125 9.957031 17.578125 C 9.953125 17.621094 10.105469 18.5 10.289062 19.535156 L 10.628906 21.414062 L 10.78125 21.539062 L 11.898438 22.464844 L 12.867188 23.261719 L 12.742188 22.261719 C 12.671875 21.710938 12.527344 20.738281 12.417969 20.097656 L 12.214844 18.9375 L 11.085938 18.222656 C 10.449219 17.816406 9.988281 17.554688 9.957031 17.574219 Z M 9.957031 17.574219 " fill-opacity="1" fill-rule="nonzero"/><path fill="#ffffff" d="M 12.671875 19.226562 L 12.796875 20.222656 C 12.863281 20.769531 13.011719 21.765625 13.128906 22.433594 L 13.335938 23.648438 L 14.589844 24.679688 L 15.84375 25.714844 L 15.777344 25.015625 C 15.742188 24.632812 15.605469 23.542969 15.472656 22.589844 L 15.234375 20.859375 Z M 12.671875 19.226562 " fill-opacity="1" fill-rule="nonzero"/><path fill="#ffffff" d="M 32.398438 17.019531 C 32.230469 17.054688 31.777344 17.246094 30.640625 17.746094 C 29.640625 18.179688 28.820312 18.542969 28.816406 18.546875 C 28.8125 18.554688 28.871094 19.449219 28.949219 20.535156 C 29.023438 21.621094 29.089844 22.652344 29.097656 22.824219 C 29.109375 23.121094 29.117188 23.140625 29.203125 23.089844 C 29.257812 23.0625 30.015625 22.640625 30.890625 22.160156 C 31.765625 21.679688 32.5 21.261719 32.523438 21.234375 C 32.566406 21.175781 32.527344 17.175781 32.480469 17.03125 C 32.476562 17.015625 32.453125 17.007812 32.398438 17.019531 Z M 32.398438 17.019531 " fill-opacity="1" fill-rule="nonzero"/><path fill="#ffffff" d="M 28.445312 18.722656 C 28.410156 18.710938 23.960938 20.648438 23.933594 20.691406 C 23.925781 20.703125 24.023438 21.660156 24.152344 22.8125 C 24.28125 23.964844 24.398438 25.082031 24.414062 25.296875 C 24.425781 25.507812 24.449219 25.679688 24.46875 25.679688 C 24.484375 25.675781 25.460938 25.144531 26.636719 24.5 L 28.773438 23.324219 L 28.777344 23.152344 C 28.785156 22.832031 28.476562 18.734375 28.445312 18.722656 Z M 28.445312 18.722656 " fill-opacity="1" fill-rule="nonzero"/><path fill="#ffffff" d="M 15.640625 21.132812 C 15.617188 21.125 15.753906 22.238281 15.945312 23.605469 L 16.300781 26.089844 L 17.773438 27.308594 C 18.582031 27.976562 19.261719 28.523438 19.277344 28.523438 C 19.292969 28.523438 19.191406 27.589844 19.050781 26.449219 C 18.90625 25.308594 18.746094 24.0625 18.691406 23.683594 L 18.59375 22.992188 L 17.140625 22.066406 C 16.339844 21.558594 15.667969 21.136719 15.640625 21.132812 Z M 15.640625 21.132812 " fill-opacity="1" fill-rule="nonzero"/><path fill="#ffffff" d="M 23.574219 20.859375 C 23.554688 20.84375 22.214844 21.417969 19.140625 22.765625 C 19.054688 22.800781 19.074219 22.980469 19.4375 25.523438 C 19.648438 27.027344 19.84375 28.230469 19.867188 28.21875 L 22.03125 27.03125 L 24.152344 25.867188 L 24.105469 25.546875 C 24.082031 25.371094 23.957031 24.246094 23.832031 23.050781 C 23.703125 21.855469 23.585938 20.867188 23.574219 20.859375 Z M 23.574219 20.859375 " fill-opacity="1" fill-rule="nonzero"/><path fill="#ffffff" d="M 12.441406 5.753906 L 10.609375 6.332031 C 9.601562 6.652344 8.769531 6.925781 8.753906 6.941406 C 8.742188 6.960938 8.769531 6.988281 8.816406 7.007812 C 8.863281 7.027344 9.34375 7.261719 9.882812 7.523438 C 10.421875 7.785156 10.898438 7.996094 10.941406 7.992188 C 10.984375 7.988281 11.824219 7.699219 12.804688 7.34375 C 13.789062 6.992188 14.609375 6.6875 14.625 6.664062 C 14.644531 6.644531 14.160156 6.429688 13.550781 6.191406 Z M 12.441406 5.753906 " fill-opacity="1" fill-rule="nonzero"/><path fill="#ffffff" d="M 18.933594 8.3125 L 16.953125 9.117188 C 15.859375 9.558594 14.96875 9.933594 14.972656 9.949219 C 14.984375 9.992188 17.414062 11.164062 17.476562 11.15625 C 17.503906 11.152344 18.5 10.777344 19.6875 10.324219 C 20.875 9.875 21.851562 9.496094 21.859375 9.484375 C 21.867188 9.476562 21.210938 9.207031 20.402344 8.890625 Z M 18.933594 8.3125 " fill-opacity="1" fill-rule="nonzero"/><path fill="#ffffff" d="M 15.105469 6.886719 C 15.046875 6.910156 14.207031 7.214844 13.238281 7.558594 C 12.273438 7.90625 11.457031 8.203125 11.429688 8.214844 C 11.402344 8.226562 12.078125 8.574219 12.929688 8.984375 L 14.480469 9.730469 L 16.003906 9.117188 L 17.972656 8.320312 C 18.214844 8.222656 18.394531 8.125 18.371094 8.109375 C 18.34375 8.089844 17.625 7.796875 16.769531 7.460938 C 15.707031 7.042969 15.179688 6.859375 15.105469 6.886719 Z M 15.105469 6.886719 " fill-opacity="1" fill-rule="nonzero"/><path fill="#ffffff" d="M 19.753906 4.441406 L 16.292969 6.371094 L 19.714844 7.234375 L 23.230469 4.894531 Z M 19.753906 4.441406 " fill-opacity="1" fill-rule="nonzero"/><path fill="#ffffff" d="M 24.578125 2.390625 L 21.542969 3.511719 L 24.113281 5.226562 L 27.507812 3.839844 Z M 24.578125 2.390625 " fill-opacity="1" fill-rule="nonzero"/><path fill="#ffffff" d="M 17.355469 2.46875 L 12.34375 3.332031 L 14.519531 5.058594 L 19.359375 3.941406 Z M 17.355469 2.46875 " fill-opacity="1" fill-rule="nonzero"/><path fill="#ffffff" d="M 28.132812 3.28125 L 25.015625 5.1875 L 28.257812 5.914062 L 31.882812 3.839844 Z M 28.132812 3.28125 " fill-opacity="1" fill-rule="nonzero"/><path fill="#ffffff" d="M 24.171875 6.199219 L 21.828125 7.144531 C 20.539062 7.664062 19.484375 8.105469 19.484375 8.121094 C 19.488281 8.136719 20.144531 8.410156 20.949219 8.722656 L 22.402344 9.296875 L 24.839844 8.371094 C 26.179688 7.863281 27.285156 7.433594 27.292969 7.421875 C 27.304688 7.410156 26.605469 7.128906 25.742188 6.800781 Z M 24.171875 6.199219 " fill-opacity="1" fill-rule="nonzero"/><path fill="#ffffff" d="M 31.902344 4.28125 L 28.332031 6.371094 L 28.695312 11.015625 L 31.964844 8.910156 Z M 31.902344 4.28125 " fill-opacity="1" fill-rule="nonzero"/><g fill="#000000" fill-opacity="1"><g transform="translate(35.941911, 19.27092)"><g><path d="M 0.578125 -8.859375 L 3.796875 -8.859375 C 4.890625 -8.859375 5.703125 -8.601562 6.234375 -8.09375 C 6.765625 -7.582031 7.03125 -6.789062 7.03125 -5.71875 L 7.03125 -3.140625 C 7.03125 -2.066406 6.765625 -1.273438 6.234375 -0.765625 C 5.703125 -0.253906 4.890625 0 3.796875 0 L 0.578125 0 L 0.578125 -1.609375 L 1.421875 -1.609375 L 1.421875 -7.265625 L 0.578125 -7.265625 Z M 3.796875 -1.59375 C 4.378906 -1.59375 4.785156 -1.726562 5.015625 -2 C 5.242188 -2.28125 5.359375 -2.710938 5.359375 -3.296875 L 5.359375 -5.71875 C 5.359375 -6.226562 5.242188 -6.613281 5.015625 -6.875 C 4.785156 -7.132812 4.378906 -7.265625 3.796875 -7.265625 L 3.09375 -7.265625 L 3.09375 -1.59375 Z M 3.796875 -1.59375 "/></g></g></g><g fill="#000000" fill-opacity="1"><g transform="translate(43.68256, 19.27092)"><g><path d="M 5.375 -1.890625 L 2.359375 -1.890625 L 1.9375 0 L 0.1875 0 L 2.296875 -8.859375 L 5.4375 -8.859375 L 7.5625 0 L 5.8125 0 Z M 2.71875 -3.5 L 5.015625 -3.5 L 3.984375 -8.03125 L 3.765625 -8.03125 Z M 2.71875 -3.5 "/></g></g></g><g fill="#000000" fill-opacity="1"><g transform="translate(51.423209, 19.27092)"><g><path d="M 0.6875 -8.859375 L 7.0625 -8.859375 L 7.0625 -7.265625 L 4.703125 -7.265625 L 4.703125 0 L 3.03125 0 L 3.03125 -7.265625 L 0.6875 -7.265625 Z M 0.6875 -8.859375 "/></g></g></g><g fill="#000000" fill-opacity="1"><g transform="translate(59.163858, 19.27092)"><g><path d="M 5.375 -1.890625 L 2.359375 -1.890625 L 1.9375 0 L 0.1875 0 L 2.296875 -8.859375 L 5.4375 -8.859375 L 7.5625 0 L 5.8125 0 Z M 2.71875 -3.5 L 5.015625 -3.5 L 3.984375 -8.03125 L 3.765625 -8.03125 Z M 2.71875 -3.5 "/></g></g></g><g fill="#000000" fill-opacity="1"><g transform="translate(66.904507, 19.27092)"><g><path d="M 2.640625 0 L 0.96875 0 L 0.96875 -8.859375 L 2.640625 -8.859375 L 2.640625 -5.234375 L 3.015625 -5.234375 L 5.359375 -8.859375 L 7.234375 -8.859375 L 7.234375 -8.78125 L 4.5 -4.546875 L 4.5 -4.3125 L 7.390625 -0.078125 L 7.390625 0 L 5.421875 0 L 3.015625 -3.625 L 2.640625 -3.625 Z M 2.640625 0 "/></g></g></g><g fill="#000000" fill-opacity="1"><g transform="translate(74.645156, 19.27092)"><g><path d="M 3.03125 -3.109375 L 2.65625 -3.109375 L 0.109375 -8.859375 L 1.9375 -8.859375 L 3.765625 -4.625 L 3.984375 -4.625 L 5.8125 -8.859375 L 7.625 -8.859375 L 5.09375 -3.109375 L 4.703125 -3.109375 L 4.703125 0 L 3.03125 0 Z M 3.03125 -3.109375 "/></g></g></g><g fill="#000000" fill-opacity="1"><g transform="translate(82.385806, 19.27092)"><g><path d="M 7.0625 -8.859375 L 7.0625 -3.0625 C 7.0625 -2.050781 6.789062 -1.257812 6.25 -0.6875 C 5.71875 -0.113281 4.925781 0.171875 3.875 0.171875 C 2.820312 0.171875 2.023438 -0.113281 1.484375 -0.6875 C 0.953125 -1.257812 0.6875 -2.050781 0.6875 -3.0625 L 0.6875 -8.859375 L 2.359375 -8.859375 L 2.359375 -3.0625 C 2.359375 -2.539062 2.476562 -2.128906 2.71875 -1.828125 C 2.96875 -1.535156 3.351562 -1.390625 3.875 -1.390625 C 4.394531 -1.390625 4.773438 -1.535156 5.015625 -1.828125 C 5.265625 -2.128906 5.390625 -2.539062 5.390625 -3.0625 L 5.390625 -8.859375 Z M 7.0625 -8.859375 "/></g></g></g></svg>