<svg width="117" height="284" viewBox="0 0 117 284" fill="none" xmlns="http://www.w3.org/2000/svg">
<g opacity="0.2" clip-path="url(#clip0_180_2875)">
<path d="M142.097 0C63.5443 0 0 63.5443 0 142.097C0 220.456 63.5443 284.195 142.097 284.195C220.456 284.195 284.195 220.651 284.195 142.097C284 63.5443 220.456 0 142.097 0ZM142.097 275.034C68.6122 275.034 9.16129 215.583 9.16129 142.097C9.16129 68.6122 68.6122 9.16129 142.097 9.16129C215.583 9.16129 275.034 68.6122 275.034 142.097C275.034 215.388 215.388 275.034 142.097 275.034Z" fill="#E4E4E4"/>
<path d="M142.099 30.6025C80.6984 30.6025 30.7986 80.5023 30.7986 141.902C30.7986 203.303 80.6984 253.202 142.099 253.202C203.499 253.202 253.398 203.498 253.398 142.097C253.398 80.5023 203.499 30.6025 142.099 30.6025ZM142.099 236.244C90.0546 236.244 47.7567 193.946 47.7567 141.902C47.7567 89.8585 90.0546 47.5607 142.099 47.5607C194.142 47.5607 236.44 89.8585 236.44 141.902C236.44 193.946 194.142 236.244 142.099 236.244Z" fill="#E4E4E4"/>
<path d="M142.098 79.5278C107.597 79.5278 79.5284 107.596 79.5284 142.097C79.5284 176.598 107.402 204.667 142.098 204.667C176.599 204.667 204.668 176.598 204.668 142.097C204.473 107.596 176.599 79.5278 142.098 79.5278ZM142.098 175.624C123.581 175.624 108.572 160.615 108.572 142.097C108.572 123.58 123.581 108.571 142.098 108.571C160.616 108.571 175.624 123.58 175.624 142.097C175.624 160.615 160.616 175.624 142.098 175.624Z" fill="#E4E4E4"/>
</g>
<defs>
<clipPath id="clip0_180_2875">
<rect width="284" height="284" fill="white"/>
</clipPath>
</defs>
</svg>
