<svg width="598" height="96" viewBox="0 0 598 96" fill="none" xmlns="http://www.w3.org/2000/svg">
<path d="M170.22 61.5226H136.983L130.966 72.2044H120.329L148.283 24.0681H160.094L188.048 72.2044H176.237L170.22 61.5226ZM166.476 54.8672L153.637 32.1868H153.566L140.728 54.8672H166.48H166.476Z" fill="#F9FAFB"/>
<path d="M194.866 24.0681H240.03V32.0413H205.067V44.6973H232.638V51.2825H205.067V64.2312H240.769V72.2044H194.866V24.0681Z" fill="#F9FAFB"/>
<path d="M251.223 62.6679H261.221V72.2044H251.223V62.6679Z" fill="#F9FAFB"/>
<path d="M272.422 56.0474H281.564C281.564 60.6599 284.269 65.4944 299.339 65.4944C314.409 65.4944 317.482 61.9075 317.482 57.7298C317.482 55.3149 316.019 53.7742 313.021 52.9708C309.585 52.1674 301.685 51.9453 296.049 51.6523C289.758 51.2884 282.003 50.6268 277.982 48.7223C274.399 47.0398 272.129 43.5238 272.129 38.9822C272.129 30.3385 280.615 23.1599 299.122 23.1599C321.215 23.1599 325.312 31.1419 325.312 39.7856H316.17C316.17 34.2941 312.002 30.778 299.126 30.778C287.351 30.778 282.154 33.7081 282.154 38.2497C282.154 40.6646 283.471 41.9831 285.883 42.8621C288.88 43.8877 297.003 44.1807 302.416 44.4737C309.217 44.8376 316.17 45.2771 320.483 46.8177C325.019 48.5757 327.577 52.3848 327.577 56.9973C327.577 64.3224 323.41 73.1126 299.339 73.1126C275.268 73.1126 272.417 62.4179 272.417 56.0474H272.422Z" fill="#F9FAFB"/>
<path d="M351.786 32.0405H330.759V24.0681H383.025V32.0405H361.998V72.2044H351.781V32.0405H351.786Z" fill="#F9FAFB"/>
<path d="M389.388 50.6402V24.0681H399.608V49.4689C399.608 60.1572 406.274 64.8425 417.899 64.8425C429.524 64.8425 436.414 60.1572 436.414 49.4689V24.0681H445.745V50.6402C445.745 65.8674 435.305 73.1126 417.603 73.1126C399.9 73.1126 389.388 65.8674 389.388 50.6402Z" fill="#F9FAFB"/>
<path d="M454.835 24.0681H478.596C501.402 24.0681 508.465 35.1888 508.465 48.1362C508.465 63.4249 500.743 72.2044 480.656 72.2044H454.835V24.0681ZM480.361 64.232C493.234 64.232 498.384 58.7472 498.384 48.1362C498.384 39.2104 493.822 32.0405 478.961 32.0405H464.983V64.232H480.357H480.361Z" fill="#F9FAFB"/>
<path d="M517.1 24.0681H527.099V72.2044H517.1V24.0681Z" fill="#F9FAFB"/>
<path d="M535.28 47.9165C535.28 34.293 545.487 23.1599 566.64 23.1599C587.793 23.1599 598 34.293 598 47.9165C598 61.54 588.461 73.1126 566.64 73.1126C544.819 73.1126 535.28 62.641 535.28 47.9165ZM587.497 47.9165C587.497 38.6168 580.545 31.1459 566.64 31.1459C552.735 31.1459 545.783 38.6168 545.783 47.9165C545.783 58.2416 552.659 65.1266 566.64 65.1266C580.621 65.1266 587.497 57.7313 587.497 47.9165Z" fill="#F9FAFB"/>
<g clip-path="url(#clip0_3835_12195)">
<path d="M10.1912 2.7993L93.278 85.8172C94.3117 86.85 96.0796 86.1184 96.0796 84.6573V51.8567C96.0796 50.9509 95.3453 50.2173 94.4388 50.2173H81.9792C81.5444 50.2153 81.128 50.0411 80.8204 49.7337L67.9198 36.8458C67.403 36.3294 67.768 35.4462 68.5002 35.4462H94.4409C95.3474 35.4462 96.0816 34.7125 96.0816 33.8068V25.2695C96.0816 24.3637 95.3474 23.6301 94.4409 23.6301H55.372C54.9372 23.6301 54.5188 23.458 54.2112 23.1506L44.2681 13.2157C43.7512 12.6993 44.1163 11.8161 44.8485 11.8161H94.4388C95.3453 11.8161 96.0796 11.0824 96.0796 10.1767V1.63941C96.0796 0.733638 95.3453 0 94.4388 0H11.3521C9.88975 0 9.15756 1.76647 10.1912 2.7993Z" fill="#FF3C00"/>
<path d="M0 11.3427V94.3606C0 95.2664 0.734246 96 1.64077 96H16.096C17.0025 96 17.7368 95.2664 17.7368 94.3606V50.7173C17.7368 49.9878 18.6207 49.621 19.1376 50.1374L64.5583 95.5205C64.8659 95.8279 65.2843 96 65.7191 96H84.7275C86.1898 96 86.922 94.2335 85.8883 93.2007L2.80162 10.1828C1.76793 9.14998 0 9.88157 0 11.3427Z" fill="#FF3C00"/>
</g>
<defs>
<clipPath id="clip0_3835_12195">
<rect width="96.0796" height="96" fill="white"/>
</clipPath>
</defs>
</svg>