<svg xmlns="http://www.w3.org/2000/svg" width="178" height="48" fill="none"><g fill="#272727" clip-path="url(#a)"><path d="M1.217 22.926a1.155 1.155 0 0 0-.643.158 1.12 1.12 0 0 0-.265 1.727 1.146 1.146 0 0 0 1.23.311c.213-.074.4-.209.535-.387.136-.179.215-.393.228-.616.016-.3-.09-.595-.293-.818a1.154 1.154 0 0 0-.792-.375ZM14.497 23.82c-.05.928.276 1.839.905 2.53a3.57 3.57 0 0 0 2.655 1.167 3.568 3.568 0 0 0 1.939-.589 3.51 3.51 0 0 0 1.294-1.543 3.463 3.463 0 0 0-.695-3.78 3.549 3.549 0 0 0-1.76-.995 3.578 3.578 0 0 0-2.024.123 3.537 3.537 0 0 0-1.624 1.201 3.475 3.475 0 0 0-.69 1.885Z"/><path d="M1.217 22.926a1.155 1.155 0 0 0-.643.158 1.12 1.12 0 0 0-.265 1.727 1.146 1.146 0 0 0 1.23.311c.213-.074.4-.209.535-.387.136-.179.215-.393.228-.616.016-.3-.09-.595-.293-.818a1.154 1.154 0 0 0-.792-.375ZM14.272 3.523a1.138 1.138 0 0 0 .575-.655 1.116 1.116 0 0 0-.065-.864c-.14-.267-.38-.47-.67-.563a1.169 1.169 0 0 0-1.231.337 1.123 1.123 0 0 0-.276.822c.01.148.052.293.12.426.14.268.38.47.67.563.29.093.605.07.877-.066ZM17.887 9.71a1.76 1.76 0 0 0 .89-1.01 1.725 1.725 0 0 0-.1-1.336 1.781 1.781 0 0 0-1.035-.874 1.805 1.805 0 0 0-1.905.517 1.736 1.736 0 0 0-.428 1.271c.018.23.08.454.186.659.214.415.586.73 1.034.875.448.145.936.108 1.358-.101ZM5.724 13.965a1.486 1.486 0 0 0 2.03-.414 1.424 1.424 0 0 0-.422-1.992 1.486 1.486 0 0 0-2.03.414 1.424 1.424 0 0 0 .422 1.992ZM7.892 22.296a1.784 1.784 0 0 0-.994.244c-.3.177-.54.438-.69.75a1.73 1.73 0 0 0 .28 1.92 1.787 1.787 0 0 0 2.728-.116c.21-.277.332-.608.352-.952a1.744 1.744 0 0 0-.452-1.266 1.784 1.784 0 0 0-1.224-.58ZM5.92 34.04a1.449 1.449 0 0 0-.73.832 1.419 1.419 0 0 0 .084 1.1c.177.341.482.6.851.72a1.486 1.486 0 0 0 1.566-.426 1.43 1.43 0 0 0 .35-1.047 1.422 1.422 0 0 0-.153-.542 1.464 1.464 0 0 0-.85-.72c-.37-.12-.77-.09-1.117.082ZM12.832 18.686c.464.3 1.03.405 1.573.294.543-.11 1.02-.43 1.326-.886a2.033 2.033 0 0 0 .298-1.547 2.034 2.034 0 0 0-.9-1.299 2.121 2.121 0 0 0-1.573-.294c-.543.11-1.02.428-1.326.885a2.033 2.033 0 0 0 .602 2.847ZM34.773 9.571c.395.255.875.344 1.337.25a1.788 1.788 0 0 0 1.127-.754 1.73 1.73 0 0 0-.512-2.42 1.803 1.803 0 0 0-2.465.504 1.73 1.73 0 0 0-.254 1.316 1.73 1.73 0 0 0 .767 1.104ZM38.423 3.403a1.168 1.168 0 0 0 1.594-.326 1.12 1.12 0 0 0-.332-1.565 1.168 1.168 0 0 0-1.595.325 1.121 1.121 0 0 0 .012 1.258c.086.123.195.227.321.308ZM35.053 20.49a3.576 3.576 0 0 0-2.557.881c-.347.306-.63.676-.831 1.09a3.466 3.466 0 0 0 .545 3.85 3.569 3.569 0 0 0 2.643 1.17 3.575 3.575 0 0 0 2.44-.953 3.495 3.495 0 0 0 1.114-2.347 3.422 3.422 0 0 0-.9-2.528 3.54 3.54 0 0 0-1.109-.824 3.576 3.576 0 0 0-1.345-.339ZM19.055 18.444c.297.581.753 1.07 1.315 1.41a3.58 3.58 0 0 0 1.869.514 3.636 3.636 0 0 0 1.6-.375 3.515 3.515 0 0 0 1.625-1.65c.338-.716.42-1.524.234-2.292a3.493 3.493 0 0 0-1.26-1.938 3.563 3.563 0 0 0-2.205-.743 3.644 3.644 0 0 0-1.6.374 3.53 3.53 0 0 0-1.093.838 3.454 3.454 0 0 0-.485 3.862ZM46.985 13.962a1.451 1.451 0 0 0 .73-.833 1.422 1.422 0 0 0-.084-1.1 1.465 1.465 0 0 0-.85-.72 1.485 1.485 0 0 0-1.567.426 1.43 1.43 0 0 0-.35 1.046c.014.189.066.373.152.542.177.341.483.6.852.72.368.12.77.09 1.117-.08ZM37.948 15.076a2.07 2.07 0 0 0-1.045 1.19 2.027 2.027 0 0 0 .117 1.572c.253.487.69.857 1.217 1.027a2.123 2.123 0 0 0 2.238-.608 2.044 2.044 0 0 0 .503-1.496 2.033 2.033 0 0 0-.218-.774 2.094 2.094 0 0 0-1.216-1.028 2.122 2.122 0 0 0-1.596.117ZM26.317 2.876c.287.014.572-.056.818-.201.247-.146.445-.36.568-.618a1.424 1.424 0 0 0-.232-1.58 1.472 1.472 0 0 0-2.246.097 1.43 1.43 0 0 0-.29.784c-.02.382.114.757.373 1.041.26.285.622.457 1.009.477ZM26.303 11.931c.411.021.82-.079 1.173-.287.353-.208.637-.515.814-.882a2.038 2.038 0 0 0-.33-2.263 2.106 2.106 0 0 0-2.24-.566c-.39.135-.728.381-.975.707a2.045 2.045 0 0 0-.414 1.122c-.029.546.163 1.08.532 1.487a2.1 2.1 0 0 0 1.44.682ZM14.957 32.924a2.071 2.071 0 0 0 1.046-1.19 2.028 2.028 0 0 0-.117-1.572 2.094 2.094 0 0 0-1.217-1.028 2.123 2.123 0 0 0-2.239.609 2.042 2.042 0 0 0-.502 1.495c.02.27.094.533.217.774.253.488.69.858 1.216 1.028.527.171 1.1.13 1.596-.116ZM27.656 14.932a3.466 3.466 0 0 0-.507 2.632c.095.45.28.878.542 1.257.263.38.6.704.99.955.79.509 1.752.689 2.676.5a3.58 3.58 0 0 0 2.257-1.507 3.465 3.465 0 0 0 .507-2.633 3.469 3.469 0 0 0-.543-1.257c-.263-.38-.599-.704-.99-.954a3.61 3.61 0 0 0-2.675-.5 3.578 3.578 0 0 0-2.257 1.507ZM33.846 29.558a3.524 3.524 0 0 0-1.315-1.41 3.625 3.625 0 0 0-3.47-.14 3.515 3.515 0 0 0-1.624 1.65 3.46 3.46 0 0 0-.234 2.292c.186.768.63 1.45 1.259 1.938a3.562 3.562 0 0 0 2.205.743c.556 0 1.104-.13 1.602-.375.416-.205.788-.49 1.093-.837.304-.347.537-.751.683-1.188a3.455 3.455 0 0 0-.199-2.673ZM40.07 29.314a2.123 2.123 0 0 0-1.573-.293c-.543.11-1.02.43-1.327.886a2.036 2.036 0 0 0-.298 1.547 2.036 2.036 0 0 0 .902 1.3c.464.299 1.03.404 1.572.293.544-.11 1.02-.429 1.327-.886a2.034 2.034 0 0 0 .299-1.548 2.034 2.034 0 0 0-.902-1.299ZM46.893 24.06a1.744 1.744 0 0 0-.238-.996 1.773 1.773 0 0 0-.757-.697 1.799 1.799 0 0 0-1.963.264 1.74 1.74 0 0 0-.5 1.894c.115.33.327.618.608.828.282.21.62.333.972.353a1.791 1.791 0 0 0 1.284-.438 1.753 1.753 0 0 0 .594-1.208ZM51.82 22.818a1.155 1.155 0 0 0-.644.158 1.12 1.12 0 0 0-.266 1.727 1.147 1.147 0 0 0 1.23.312c.213-.075.4-.21.535-.388.136-.178.216-.393.228-.616.016-.3-.089-.594-.292-.818a1.155 1.155 0 0 0-.791-.375ZM47.18 34.034a1.485 1.485 0 0 0-2.03.415 1.423 1.423 0 0 0 .422 1.992 1.486 1.486 0 0 0 2.03-.414 1.424 1.424 0 0 0-.422-1.993ZM14.482 44.597a1.167 1.167 0 0 0-1.594.325 1.12 1.12 0 0 0 .331 1.566 1.167 1.167 0 0 0 1.594-.326 1.118 1.118 0 0 0-.33-1.565ZM38.632 44.478a1.138 1.138 0 0 0-.574.654 1.114 1.114 0 0 0 .065.864c.14.268.38.47.67.563a1.168 1.168 0 0 0 1.23-.336 1.123 1.123 0 0 0 .277-.822 1.117 1.117 0 0 0-.12-.426c-.14-.268-.38-.47-.67-.564a1.168 1.168 0 0 0-.878.067ZM25.252 33.068a3.46 3.46 0 0 0 .508-2.633 3.463 3.463 0 0 0-.543-1.256c-.263-.38-.6-.704-.99-.954a3.61 3.61 0 0 0-2.677-.5 3.578 3.578 0 0 0-2.257 1.507 3.463 3.463 0 0 0-.507 2.633c.095.45.28.877.543 1.257.263.38.6.703.99.953.791.51 1.753.69 2.677.5a3.579 3.579 0 0 0 2.257-1.507h-.001ZM18.134 38.425a1.804 1.804 0 0 0-1.336-.25 1.788 1.788 0 0 0-1.128.753 1.728 1.728 0 0 0 .512 2.42c.395.254.876.344 1.337.25a1.789 1.789 0 0 0 1.128-.753 1.73 1.73 0 0 0 .254-1.315 1.73 1.73 0 0 0-.767-1.105ZM26.436 45.124a1.469 1.469 0 0 0-.82.2c-.246.147-.444.361-.568.618a1.426 1.426 0 0 0 .231 1.582 1.472 1.472 0 0 0 2.248-.097c.173-.228.274-.5.29-.785a1.436 1.436 0 0 0-.373-1.041 1.469 1.469 0 0 0-1.008-.477ZM26.452 36.068a2.101 2.101 0 0 0-1.173.287 2.067 2.067 0 0 0-.814.883 2.037 2.037 0 0 0 .33 2.262c.275.303.635.518 1.033.619.399.1.819.083 1.207-.052.389-.135.728-.381.975-.706.247-.326.39-.716.414-1.122a2.05 2.05 0 0 0-.532-1.489 2.099 2.099 0 0 0-1.44-.682ZM35.019 38.29a1.76 1.76 0 0 0-.89 1.01 1.725 1.725 0 0 0 .1 1.337 1.78 1.78 0 0 0 1.034.874 1.803 1.803 0 0 0 1.903-.518 1.738 1.738 0 0 0 .428-1.27 1.727 1.727 0 0 0-.185-.66 1.78 1.78 0 0 0-1.034-.873 1.805 1.805 0 0 0-1.356.1ZM63.766 24.714H74.8v2.394h-8.17v4.087h7.364v2.396H66.63v6.198h-2.865V24.714ZM75.563 34.01c0-4.155 1.946-6.044 5.796-6.044 3.85 0 5.797 1.89 5.797 6.043 0 4.154-1.947 6.044-5.797 6.044-3.85 0-5.796-1.89-5.796-6.044Zm8.818.153v-.307c0-2.506-.873-3.736-3.022-3.736-2.17 0-3.022 1.23-3.022 3.736v.307c0 2.506.85 3.737 3.022 3.737 2.149 0 3.022-1.231 3.022-3.737ZM89.48 36.032V28.23h2.686v7.34c0 1.649.828 2.201 2.171 2.201a2.707 2.707 0 0 0 1.931-.846 2.643 2.643 0 0 0 .71-1.966v-6.726h2.686v11.56h-2.216l-.224-1.538h-.156a4.554 4.554 0 0 1-1.67 1.357 4.607 4.607 0 0 1-2.113.445c-2.26-.003-3.804-1.08-3.804-4.025ZM102.801 28.229h2.216l.224 1.538h.157a4.55 4.55 0 0 1 1.669-1.356 4.607 4.607 0 0 1 2.113-.446c2.238 0 3.806 1.077 3.806 4.022v7.8H110.3v-7.338c0-1.649-.828-2.201-2.171-2.201a2.703 2.703 0 0 0-1.931.847 2.642 2.642 0 0 0-.71 1.966v6.726h-2.687V28.229ZM115.289 33.987c0-4.154 1.902-6.022 4.524-6.022.68-.058 1.363.06 1.983.34.62.282 1.155.718 1.554 1.265h.134V23.9h2.686v15.889h-2.216l-.224-1.539h-.134a4.092 4.092 0 0 1-1.563 1.37 4.144 4.144 0 0 1-2.041.433c-2.89 0-4.703-1.846-4.703-6.066Zm8.192.176V33.9c0-2.352-.806-3.67-2.686-3.67-1.992 0-2.729 1.142-2.729 3.648v.283c0 2.485.718 3.627 2.729 3.627 1.902 0 2.686-1.296 2.686-3.625ZM128.426 36.8c0-3.143 3.066-4.022 7.386-4.022v-.967c0-.989-.359-1.758-2.011-1.758-1.723 0-2.172.681-2.172 1.296v.308h-2.596a3.125 3.125 0 0 1-.022-.484c0-2 1.925-3.208 4.79-3.208 3.179 0 4.7 1.34 4.7 3.648v5.517a.712.712 0 0 0 .475.728c.099.035.204.05.309.04h.718v1.803a4.125 4.125 0 0 1-1.679.33 2.165 2.165 0 0 1-1.405-.382 2.128 2.128 0 0 1-.834-1.18h-.156a4.504 4.504 0 0 1-1.688 1.236 4.557 4.557 0 0 1-2.072.346c-1.348.002-3.743-.437-3.743-3.25Zm7.386-1.626v-.527c-2.552 0-4.633.355-4.633 1.89 0 .923.604 1.406 1.79 1.406a2.646 2.646 0 0 0 2.07-.735 2.574 2.574 0 0 0 .773-2.036v.002ZM141.898 37.174v-6.792h-1.433v-2.154h1.477l.492-3.23h2.149v3.23h2.01v2.154h-2.01v6.527a.855.855 0 0 0 .234.73.874.874 0 0 0 .728.259h1.052V39.7a5.95 5.95 0 0 1-1.88.355c-2.171-.002-2.819-1.453-2.819-2.881ZM148.77 23.9h2.641v2.593h-2.641v-2.594Zm0 4.33h2.685v11.56h-2.685V28.23ZM153.832 34.01c0-4.155 1.948-6.044 5.797-6.044 3.849 0 5.797 1.89 5.797 6.043 0 4.154-1.947 6.044-5.797 6.044-3.85 0-5.797-1.89-5.797-6.044Zm8.819.153v-.307c0-2.506-.873-3.736-3.022-3.736-2.171 0-3.022 1.23-3.022 3.736v.307c0 2.506.85 3.737 3.022 3.737 2.146 0 3.019-1.231 3.019-3.737h.003ZM167.816 28.229h2.217l.224 1.538h.156a4.553 4.553 0 0 1 1.67-1.356 4.606 4.606 0 0 1 2.113-.446c2.239 0 3.806 1.077 3.806 4.022v7.8h-2.685v-7.338c0-1.649-.828-2.201-2.171-2.201a2.677 2.677 0 0 0-2.491 1.758 2.633 2.633 0 0 0-.151 1.055v6.726h-2.685l-.003-11.558ZM63.16 12.186c0-5.297 2.73-7.802 7.431-7.802 3.828 0 6.783 1.89 6.783 5.822H74.44c0-2.242-1.567-3.45-3.806-3.45-3.088 0-4.543 1.758-4.543 5.208v.44c0 3.516 1.432 5.209 4.543 5.209 2.37 0 3.917-1.207 3.917-3.408h2.82c0 3.934-2.91 5.78-6.782 5.78-4.7.003-7.43-2.37-7.43-7.8ZM79.031 16.737c0-3.143 3.067-4.022 7.386-4.022v-.966c0-.99-.359-1.758-2.014-1.758-1.724 0-2.171.681-2.171 1.296v.307h-2.597a3.05 3.05 0 0 1-.022-.483c0-2 1.924-3.209 4.79-3.209 3.178 0 4.7 1.341 4.7 3.648v5.517a.71.71 0 0 0 .212.564.726.726 0 0 0 .572.205h.718v1.802a4.125 4.125 0 0 1-1.68.33 2.163 2.163 0 0 1-1.404-.382 2.12 2.12 0 0 1-.834-1.18h-.156a4.503 4.503 0 0 1-1.688 1.237 4.553 4.553 0 0 1-2.072.345c-1.347 0-3.74-.439-3.74-3.25Zm7.386-1.626v-.528c-2.551 0-4.633.355-4.633 1.89 0 .923.604 1.407 1.79 1.407a2.647 2.647 0 0 0 2.07-.735c.27-.264.48-.582.613-.933.133-.352.188-.727.16-1.101ZM92.348 8.164h2.216l.246 1.825h.157c.425-1.1 1.164-2.088 2.641-2.088.382-.002.761.065 1.119.198v2.485h-.851c-1.836 0-2.843.989-2.843 3.123v6.022h-2.685V8.164ZM99.867 13.923c0-4.154 1.903-6.022 4.524-6.022.68-.058 1.363.06 1.983.34a3.94 3.94 0 0 1 1.554 1.264h.134v-5.67h2.686v15.89h-2.216l-.224-1.54h-.133a4.091 4.091 0 0 1-1.563 1.37 4.145 4.145 0 0 1-2.041.433c-2.891 0-4.704-1.845-4.704-6.065Zm8.192.176v-.264c0-2.351-.806-3.67-2.686-3.67-1.992 0-2.729 1.143-2.729 3.648v.284c0 2.485.718 3.627 2.729 3.627 1.903 0 2.686-1.296 2.686-3.625ZM113.004 16.737c0-3.143 3.066-4.022 7.386-4.022v-.966c0-.99-.359-1.758-2.014-1.758-1.724 0-2.171.681-2.171 1.296v.307h-2.597a3.004 3.004 0 0 1-.022-.483c0-2 1.925-3.209 4.79-3.209 3.178 0 4.7 1.341 4.7 3.648v5.517a.705.705 0 0 0 .211.564.736.736 0 0 0 .572.205h.718v1.802a4.122 4.122 0 0 1-1.679.33 2.163 2.163 0 0 1-1.404-.382 2.118 2.118 0 0 1-.834-1.18h-.157a4.496 4.496 0 0 1-1.688 1.236 4.551 4.551 0 0 1-2.072.346c-1.344 0-3.739-.439-3.739-3.25Zm7.386-1.626v-.528c-2.552 0-4.634.355-4.634 1.89 0 .923.604 1.407 1.791 1.407a2.645 2.645 0 0 0 2.069-.735 2.567 2.567 0 0 0 .774-2.034ZM126.32 8.164h2.216l.224 1.539h.156a4.553 4.553 0 0 1 1.67-1.357A4.607 4.607 0 0 1 132.7 7.9c2.238 0 3.806 1.077 3.806 4.022v7.803h-2.686v-7.341c0-1.649-.828-2.201-2.171-2.201a2.676 2.676 0 0 0-2.491 1.758 2.615 2.615 0 0 0-.15 1.055v6.726h-2.686l-.002-11.558ZM138.832 13.945c0-4.154 1.947-6.044 5.797-6.044 3.85 0 5.797 1.89 5.797 6.044s-1.947 6.043-5.797 6.043c-3.85 0-5.797-1.89-5.797-6.043Zm8.819.154v-.308c0-2.505-.873-3.736-3.021-3.736-2.171 0-3.022 1.23-3.022 3.736v.308c0 2.505.85 3.736 3.022 3.736 2.148 0 3.021-1.23 3.021-3.736Z"/></g><defs><clipPath id="a"><path fill="#fff" d="M0 0h178v48H0z"/></clipPath></defs></svg>