<svg width="568" height="170" version="1.1" viewBox="0 0 568 170" xmlns="http://www.w3.org/2000/svg">
 <g transform="matrix(1.8772 0 0 1.8772 -824.25 -1879.3)">
  <path transform="matrix(1.3333 0 0 -1.3333 513.1 1088.9)" d="m0 0h-42.357c-5.063 0-9.169 4.125-9.169 9.214v45.367c0 5.088 4.106 9.214 9.169 9.214h42.357c5.064 0 9.169-4.126 9.169-9.214v-45.367c0-5.089-4.105-9.214-9.169-9.214" fill="#ed1d24"/>
 </g>
 <g transform="matrix(1.8772 0 0 1.8772 -824.25 -1879.3)">
  <path transform="matrix(1.3333 0 0 -1.3333 492.92 1061.8)" d="m0 0v-5.968c0.165-0.195 0.428-0.498 0.87-1.029 1.802-2.167 4.592-2.955 6.4-5.042 0.295-0.34 0.544-0.58 0.717-0.772 1.173 0.696 2.271 1.459 3.328 2.316-1.381 2.14-3.279 3.809-5.428 4.99-2.162 1.184-4.407 3.484-5.887 5.505m-12.082 0.56595c-1.97-1.422-3.912-3.332-5.069-5.402-1.169-2.196-2.957-4.066-5.119-5.505-0.305-0.204-0.535-0.391-0.717-0.514 1.145-0.892 2.361-1.663 3.635-2.367 0.276 0.21 0.661 0.5 1.178 0.874 2.719 1.964 4.198 4.882 6.092 7.563zm17.253 4.8361 0.461-0.772c1.737-2.41 4.3-3.745 6.604-5.402 1.651-1.103 3.115-2.776 4.147-4.425 0.846 1.161 1.589 2.416 2.253 3.705-1.241 1.654-2.478 3.206-4.25 4.321-1.253 0.735-2.65 1.69-3.891 2.573zm-5.1708 0v-2.83c1.386-2.062 3.435-4.51 5.427-5.711 2.609-1.611 5.166-3.759 7.218-6.225 0.973 0.896 1.874 1.857 2.714 2.882-0.138 0.224-0.258 0.494-0.461 0.822-1.746 2.83-4.956 4.493-7.475 6.329-1.81 1.317-3.08 2.969-4.249 4.733zm-15.513 0c-2.259-1.62-4.254-3.601-5.785-5.916-1.489-2.626-3.133-4.773-5.58-6.535l-0.052-0.051c0.887-1.021 1.847-1.949 2.867-2.83 0.224 0.149 0.467 0.334 0.768 0.566 2.32 1.782 4.147 3.902 5.529 6.277 1.399 2.214 3.566 4.157 5.683 5.711v2.778zm-8.6011 0c-1.395-1.369-2.228-2.692-3.174-4.27-0.7-1.223-1.892-2.414-3.123-3.241 0.684-1.25 1.501-2.427 2.355-3.551l1.433 1.03c0.602 0.432 1.264 0.967 1.69 1.543 1.134 1.222 1.927 2.838 2.918 4.167 1.1 1.548 2.406 2.758 3.789 3.911 0.087 0.071 0.337 0.259 0.512 0.411zm-4.0957 23.255c-0.848-1.13-1.579-2.297-2.253-3.55 1.27-2.165 2.89-4.128 5.171-5.299 1.739-0.893 2.662-1.696 3.021-2.058h5.222c-0.6 1.095-1.647 2.356-2.458 3.241-2.482 2.266-5.885 3.013-7.73 6.071-0.516 0.858-0.801 1.331-0.973 1.595m44.234 0.15442c-0.215-0.119-0.469-0.272-0.768-0.463-2.481-1.583-3.985-4.283-5.58-6.585-0.926-1.41-2.363-2.824-3.687-4.014h5.786c1.358 1.227 2.548 2.991 3.276 4.168 0.781 1.26 2.11 2.42 3.175 3.499-0.662 1.189-1.385 2.321-2.202 3.395m-40.496 3.9615c-1.014-0.908-1.942-1.934-2.816-2.984 0.18-0.315 0.506-0.805 1.024-1.595 1.403-2.144 3.49-3.301 5.581-4.63 0.602-0.325 1.173-0.803 1.74-1.235 1.624-1.303 2.963-3.039 4.147-4.579h2.714v3.293c-0.713 0.94-1.51 1.907-2.304 2.778-1.739 1.943-4.018 3.19-6.144 4.63-1.491 1.132-2.883 2.859-3.942 4.322m36.554 0.25718c-0.871-0.64-1.735-1.204-2.509-1.955-1.843-1.548-2.869-3.692-4.249-5.66-1.321-1.882-3.373-3.447-5.324-4.63v-3.035h3.43c1.589 1.091 3.313 2.665 4.505 4.064 1.95 2.735 3.424 6.057 6.297 7.821 0.291 0.178 0.516 0.331 0.717 0.463-0.895 1.043-1.833 2.03-2.867 2.932m-32.049 3.0356c-1.186-0.696-2.312-1.507-3.379-2.367 1.417-1.942 3.488-4.116 5.58-5.196 2.159-1.265 4.04-3.179 5.683-4.939v5.814c-0.26 0.321-0.702 0.823-1.024 1.131-1.968 1.906-4.97 3.347-6.86 5.557m27.339 0.25718c-0.539-0.329-1.472-0.839-2.969-2.264-1.628-1.549-2.777-4.366-4.403-6.122v-5.042c2.065 1.465 4.142 3.536 5.426 5.659 1.242 1.978 2.827 3.824 4.813 4.939 0.319 0.181 0.537 0.344 0.717 0.463-1.13 0.887-2.326 1.663-3.584 2.367m-18.277 3.0354v-22.791h-22.526v-9.93h22.526v-22.843h9.778v22.843h22.476v9.93h-22.476v22.791z" fill="#fff"/>
 </g>
 <g>
  <path transform="matrix(4.253 0 0 -4.253 507.83 112.20)" d="m0 0c0.317-1.526 0.889-2.603 1.717-3.229 0.827-0.627 2.012-0.939 3.553-0.939 0.748 0 1.394 0.09 1.938 0.273 0.544 0.182 0.991 0.427 1.343 0.735 0.351 0.307 0.617 0.654 0.799 1.042 0.181 0.387 0.272 0.797 0.272 1.23 0 0.865-0.278 1.509-0.833 1.93-0.556 0.422-1.253 0.752-2.091 0.991-0.839 0.239-1.746 0.444-2.72 0.615-0.975 0.171-1.882 0.427-2.72 0.769-0.839 0.341-1.536 0.831-2.091 1.469-0.556 0.637-0.833 1.538-0.833 2.7 0 1.48 0.538 2.693 1.615 3.638 1.076 0.945 2.601 1.418 4.573 1.418 1.904 0 3.451-0.427 4.641-1.281s1.909-2.284 2.159-4.288h-2.074c-0.182 1.367-0.697 2.329-1.547 2.887s-1.921 0.837-3.213 0.837-2.278-0.279-2.958-0.837-1.02-1.293-1.02-2.204c0-0.798 0.277-1.407 0.833-1.828 0.555-0.422 1.252-0.763 2.091-1.025 0.838-0.262 1.745-0.495 2.72-0.7 0.974-0.205 1.881-0.496 2.72-0.872 0.838-0.376 1.536-0.883 2.091-1.52 0.555-0.638 0.833-1.526 0.833-2.665 0-0.843-0.182-1.589-0.544-2.238-0.363-0.649-0.861-1.191-1.496-1.623-0.635-0.433-1.389-0.758-2.261-0.974-0.873-0.216-1.831-0.325-2.873-0.325-1.043 0-1.967 0.154-2.771 0.462-0.805 0.307-1.491 0.734-2.058 1.281-0.566 0.547-1.008 1.184-1.325 1.914-0.318 0.728-0.499 1.514-0.544 2.357zm-9.724 4.7837c0.385 0.045 0.844 0.114 1.376 0.205 0.533 0.091 0.969 0.216 1.31 0.376 0.34 0.159 0.549 0.427 0.629 0.802 0.079 0.376 0.119 0.723 0.119 1.043 0 1.047-0.335 1.907-1.003 2.58-0.669 0.671-1.797 1.008-3.384 1.008-0.702 0-1.348-0.064-1.938-0.188-0.589-0.126-1.105-0.342-1.546-0.65-0.443-0.307-0.805-0.717-1.089-1.23-0.283-0.512-0.47-1.156-0.56-1.93h-2.075c0.068 1.047 0.306 1.941 0.714 2.682 0.408 0.74 0.936 1.344 1.582 1.811s1.393 0.808 2.243 1.025c0.851 0.216 1.752 0.325 2.704 0.325 0.884 0 1.717-0.098 2.499-0.291 0.782-0.194 1.462-0.501 2.04-0.922 0.577-0.422 1.031-0.986 1.36-1.692 0.328-0.706 0.493-1.572 0.493-2.597v-9.635c0-0.797 0.141-1.304 0.425-1.521 0.283-0.216 0.855-0.165 1.717 0.154v-1.606c-0.159-0.045-0.391-0.113-0.697-0.205-0.306-0.09-0.607-0.136-0.901-0.136-0.318 0-0.624 0.034-0.918 0.102-0.34 0.046-0.612 0.154-0.816 0.325s-0.369 0.376-0.493 0.615c-0.125 0.239-0.21 0.501-0.255 0.786-0.046 0.284-0.068 0.586-0.068 0.905-0.862-0.957-1.848-1.686-2.958-2.187-1.111-0.5-2.312-0.752-3.605-0.752-0.77 0-1.512 0.103-2.226 0.308-0.715 0.205-1.343 0.524-1.888 0.957-0.544 0.433-0.974 0.962-1.292 1.589-0.317 0.626-0.475 1.372-0.475 2.238 0 3.007 2.051 4.783 6.154 5.33zm3.434-1.025c-0.862-0.364-1.735-0.604-2.618-0.718-0.884-0.114-1.769-0.205-2.653-0.273-1.564-0.114-2.782-0.467-3.654-1.059-0.873-0.593-1.31-1.492-1.31-2.699 0-0.547 0.108-1.02 0.324-1.419 0.215-0.398 0.498-0.729 0.849-0.99 0.352-0.263 0.76-0.457 1.225-0.581 0.464-0.126 0.935-0.188 1.411-0.188 0.816 0 1.609 0.102 2.38 0.307 0.77 0.205 1.456 0.518 2.057 0.94 0.6 0.421 1.082 0.957 1.445 1.606 0.362 0.649 0.544 1.418 0.544 2.306zm-12.546-9.3623c-0.25-0.045-0.579-0.125-0.986-0.239-0.409-0.114-0.862-0.171-1.361-0.171-1.02 0-1.796 0.256-2.328 0.769-0.533 0.512-0.8 1.429-0.8 2.75v12.95h-2.482v1.709h2.482v4.92h2.04v-4.92h3.298v-1.709h-3.298v-12.13c0-0.433 0.012-0.809 0.035-1.127 0.022-0.319 0.09-0.581 0.204-0.786 0.112-0.205 0.289-0.353 0.526-0.444 0.239-0.092 0.573-0.137 1.004-0.137 0.271 0 0.549 0.023 0.833 0.068 0.282 0.046 0.561 0.103 0.833 0.171zm-11.901 24.407h2.244v-3.041h-2.244zm0.102-6.64h2.04v-17.699h-2.04zm-7.4798-17.699h-2.04v17.699h2.04v-3.314h0.068c0.566 1.412 1.297 2.397 2.193 2.955 0.895 0.558 2.08 0.838 3.554 0.838v-2.222c-1.157 0.023-2.109-0.159-2.857-0.546-0.748-0.388-1.343-0.912-1.785-1.572-0.442-0.661-0.748-1.441-0.918-2.341-0.17-0.899-0.255-1.839-0.255-2.818zm-11.084 10.319c0.386 0.045 0.844 0.114 1.377 0.205 0.532 0.091 0.969 0.216 1.31 0.376 0.339 0.159 0.548 0.427 0.628 0.802 0.079 0.376 0.119 0.723 0.119 1.043 0 1.047-0.334 1.907-1.003 2.58-0.669 0.671-1.797 1.008-3.383 1.008-0.703 0-1.349-0.064-1.938-0.188-0.59-0.126-1.105-0.342-1.547-0.65-0.442-0.307-0.805-0.717-1.088-1.23-0.284-0.512-0.471-1.156-0.561-1.93h-2.074c0.068 1.047 0.306 1.941 0.714 2.682 0.408 0.74 0.935 1.344 1.581 1.811s1.394 0.808 2.244 1.025c0.85 0.216 1.751 0.325 2.703 0.325 0.884 0 1.717-0.098 2.499-0.291 0.782-0.194 1.462-0.501 2.04-0.922 0.578-0.422 1.031-0.986 1.361-1.692 0.328-0.706 0.492-1.572 0.492-2.597v-9.635c0-0.797 0.142-1.304 0.425-1.521 0.283-0.216 0.855-0.165 1.717 0.154v-1.606c-0.158-0.045-0.391-0.113-0.697-0.205-0.306-0.09-0.607-0.136-0.9-0.136-0.318 0-0.624 0.034-0.919 0.102-0.34 0.046-0.612 0.154-0.816 0.325s-0.368 0.376-0.493 0.615-0.21 0.501-0.255 0.786c-0.045 0.284-0.068 0.586-0.068 0.905-0.862-0.957-1.847-1.686-2.958-2.187-1.111-0.5-2.312-0.752-3.604-0.752-0.771 0-1.513 0.103-2.227 0.308s-1.343 0.524-1.887 0.957-0.975 0.962-1.292 1.589c-0.318 0.626-0.476 1.372-0.476 2.238 0 3.007 2.051 4.783 6.154 5.33zm3.434-1.025c-0.862-0.364-1.734-0.604-2.618-0.718s-1.768-0.205-2.652-0.273c-1.564-0.114-2.783-0.467-3.655-1.059-0.873-0.593-1.309-1.492-1.309-2.699 0-0.547 0.107-1.02 0.323-1.419 0.215-0.398 0.498-0.729 0.85-0.99 0.351-0.263 0.759-0.457 1.224-0.581 0.464-0.126 0.935-0.188 1.411-0.188 0.816 0 1.609 0.102 2.38 0.307 0.77 0.205 1.456 0.518 2.057 0.94 0.601 0.421 1.082 0.957 1.445 1.606 0.363 0.649 0.544 1.418 0.544 2.306zm-15.64 2.836c-0.363 1.321-0.986 2.351-1.87 3.092-0.884 0.74-2.006 1.111-3.366 1.111-1.043 0-1.938-0.217-2.686-0.65-0.748-0.433-1.36-1.008-1.837-1.725-0.475-0.718-0.827-1.527-1.053-2.426-0.227-0.9-0.34-1.805-0.34-2.716 0-0.935 0.107-1.845 0.322-2.734 0.216-0.888 0.562-1.686 1.038-2.392s1.088-1.27 1.836-1.691c0.748-0.422 1.654-0.632 2.72-0.632 1.518 0 2.737 0.421 3.655 1.264 0.918 0.842 1.501 2.004 1.751 3.485h2.176c-0.182-0.979-0.47-1.873-0.867-2.682s-0.907-1.503-1.53-2.084c-0.624-0.581-1.366-1.031-2.227-1.35-0.862-0.318-1.848-0.478-2.958-0.478-1.406 0-2.618 0.239-3.638 0.717-1.02 0.479-1.859 1.133-2.516 1.965-0.658 0.831-1.145 1.816-1.462 2.956-0.318 1.138-0.477 2.357-0.477 3.656 0 1.23 0.176 2.409 0.528 3.536 0.351 1.128 0.867 2.124 1.547 2.99 0.68 0.865 1.524 1.554 2.533 2.067 1.008 0.513 2.17 0.769 3.485 0.769 2.04 0 3.689-0.491 4.947-1.47s2.045-2.506 2.363-4.578z" fill="#fff"/>
 </g>
</svg>
