<svg width="140" height="20" viewBox="0 0 140 20" fill="none" xmlns="http://www.w3.org/2000/svg">
<path d="M23.7989 9.79453V14.5519H19.0416V5.03326H4.76172V0.275879H14.2803C19.5356 0.275879 23.7989 4.53924 23.7989 9.79453Z" fill="white"/>
<path d="M19.0377 14.5558V19.3131H9.51909C4.26382 19.3131 0.000488281 15.0498 0.000488281 9.79448V5.03711H4.75784V14.5558H19.0338H19.0377Z" fill="white"/>
<path fill-rule="evenodd" clip-rule="evenodd" d="M35.6938 6.38309C35.6938 10.2497 35.7094 12.6459 35.7366 12.9182C35.9234 14.7737 36.6041 16.3063 37.8061 17.5472C39.1792 18.9709 41.0425 19.7255 43.1664 19.7255H43.6682V16.1468L43.3258 16.1235C41.7971 16.0107 40.4045 14.9332 39.9027 13.4744C39.7005 12.8793 39.681 12.6459 39.681 10.4558V8.41753H43.6682V5.03329H39.681V0.283691H35.6938V6.39087V6.38309ZM52.5449 4.65596C48.9468 5.0294 46.1382 7.54229 45.512 10.9499C45.4186 11.4633 45.403 12.8092 45.4886 13.2838C45.6987 14.4741 46.1227 15.5089 46.7723 16.423C47.1457 16.9442 47.9082 17.7222 48.4333 18.1151C49.4719 18.8931 50.6894 19.4105 51.9925 19.6283C52.5255 19.7178 53.603 19.7489 54.1514 19.6905C57.1895 19.3677 59.6985 17.4966 60.7565 14.7776C61.3011 13.3772 61.3789 11.6967 60.9705 10.2302C60.6204 8.98157 59.9863 7.91184 59.0138 6.94714C57.8041 5.74515 56.4037 5.03328 54.6532 4.73765C54.0775 4.6404 53.0778 4.60151 52.5449 4.65596ZM69.6449 4.65986C68.7153 4.74544 67.7311 5.0294 66.9259 5.44562C64.7242 6.57759 63.3122 8.70149 63.0243 11.3116C62.9971 11.5645 62.9815 13.1204 62.9815 15.5127V19.3132H66.9687V15.505C66.9687 11.3855 66.9687 11.3116 67.1943 10.6309C67.5989 9.3939 68.4546 8.56923 69.606 8.30472C70.0534 8.20358 70.7769 8.20358 71.2242 8.30472C72.6246 8.62758 73.5815 9.78677 73.8188 11.4478C73.8421 11.6228 73.8616 13.2371 73.8616 15.5244V19.3132H77.8488V15.5127C77.8488 11.615 77.8371 11.2922 77.6776 10.4986C76.923 6.73708 73.566 4.2981 69.6449 4.65986ZM86.7216 4.65596C83.1235 5.0294 80.315 7.54229 79.6887 10.9499C79.5953 11.4633 79.5798 12.8092 79.6653 13.2838C79.8754 14.4741 80.3033 15.5089 80.949 16.423C81.3224 16.9442 82.0849 17.7222 82.61 18.1151C83.6486 18.8931 84.8661 19.4105 86.1693 19.6283C86.7022 19.7178 87.7797 19.7489 88.3282 19.6905C91.3662 19.3677 93.8752 17.4966 94.9332 14.7776C95.4778 13.3772 95.5556 11.6967 95.1472 10.2302C94.7971 8.98157 94.163 7.91184 93.1905 6.94714C91.9808 5.74515 90.5804 5.03328 88.83 4.73765C88.2542 4.6404 87.2545 4.60151 86.7216 4.65596ZM103.736 4.6404C102.736 4.72598 101.888 4.9555 101.079 5.35616C100.36 5.71014 99.8773 6.05245 99.3288 6.59315C98.1346 7.7718 97.3877 9.40556 97.1971 11.2533C97.1699 11.5178 97.1544 13.136 97.1544 15.4972V19.3132H101.142V15.4816C101.142 10.8526 101.142 10.8643 101.628 9.85679C101.826 9.44446 101.896 9.34333 102.196 9.04769C102.569 8.67426 103.001 8.4292 103.51 8.29694C103.896 8.1958 104.763 8.19969 105.152 8.30082C106.288 8.59646 107.042 9.45613 107.385 10.8409C107.47 11.1871 107.474 11.2844 107.486 15.2521L107.502 19.3093H111.481L111.496 15.3572C111.512 11.5528 111.516 11.3894 111.598 11.0121C111.928 9.49503 112.683 8.59647 113.881 8.29694C114.328 8.18413 115.188 8.20358 115.62 8.33195C116.853 8.70149 117.604 9.70899 117.821 11.3C117.868 11.6501 117.88 12.463 117.88 15.5205V19.3093H121.871L121.855 15.2716C121.84 11.6928 121.832 11.1872 121.77 10.8254C121.42 8.81041 120.575 7.27777 119.187 6.13803C117.623 4.85824 115.32 4.32921 113.239 4.77655C112.022 5.03718 110.917 5.63623 109.987 6.53091L109.509 6.99381L109.03 6.53481C107.603 5.16166 105.665 4.46925 103.736 4.63652V4.6404ZM130.74 4.65596C127.142 5.0294 124.333 7.54229 123.707 10.9499C123.613 11.4633 123.602 12.8092 123.684 13.2838C123.894 14.4741 124.318 15.5089 124.967 16.423C125.341 16.9442 126.103 17.7222 126.628 18.1151C127.671 18.8931 128.884 19.4105 130.187 19.6283C130.72 19.7178 131.798 19.7489 132.346 19.6905C135.384 19.3677 137.893 17.4966 138.951 14.7776C139.496 13.3772 139.574 11.6967 139.165 10.2302C138.815 8.98157 138.181 7.91184 137.209 6.94714C135.999 5.74515 134.595 5.03328 132.848 4.73765C132.272 4.6404 131.273 4.60151 130.74 4.65596ZM54.2565 8.32806C54.731 8.44475 55.3807 8.76372 55.7735 9.07881C56.3843 9.56894 56.9211 10.3936 57.1233 11.156C57.2323 11.5684 57.275 12.358 57.205 12.7859C57.0066 14.0618 56.1781 15.1821 55.0228 15.7384C54.3926 16.0418 54.0931 16.1079 53.319 16.1079C52.7511 16.1079 52.6072 16.0924 52.3271 16.0146C50.915 15.61 49.927 14.6142 49.5108 13.171C49.4291 12.8909 49.4174 12.7548 49.4174 12.1635C49.4174 11.3544 49.4875 11.0588 49.8064 10.4092C50.3666 9.27331 51.3974 8.50311 52.6616 8.26193C53.0817 8.18414 53.7819 8.21135 54.2487 8.32416L54.2565 8.32806ZM88.4332 8.32806C88.9078 8.44475 89.5574 8.76372 89.9502 9.07881C90.561 9.56894 91.0978 10.3936 91.3 11.156C91.409 11.5684 91.4518 12.358 91.3817 12.7859C91.1834 14.0618 90.3548 15.1821 89.1995 15.7384C88.5693 16.0418 88.2698 16.1079 87.4957 16.1079C86.9278 16.1079 86.7839 16.0924 86.5038 16.0146C85.0918 15.61 84.1037 14.6142 83.6875 13.171C83.6058 12.8909 83.5941 12.7548 83.5941 12.1635C83.5941 11.3544 83.6642 11.0588 83.9831 10.4092C84.5433 9.27331 85.5741 8.50311 86.8383 8.26193C87.2584 8.18414 87.9586 8.21135 88.4254 8.32416L88.4332 8.32806ZM132.455 8.32806C132.93 8.44475 133.579 8.76372 133.972 9.07881C134.583 9.56894 135.12 10.3936 135.322 11.156C135.431 11.5684 135.47 12.358 135.404 12.7859C135.205 14.0618 134.377 15.1821 133.222 15.7384C132.591 16.0418 132.292 16.1079 131.518 16.1079C130.95 16.1079 130.806 16.0924 130.526 16.0146C129.114 15.61 128.13 14.6142 127.71 13.171C127.628 12.8909 127.616 12.7548 127.62 12.1635C127.62 11.3544 127.686 11.0588 128.009 10.4092C128.569 9.27331 129.6 8.50311 130.864 8.26193C131.284 8.18414 131.985 8.21135 132.455 8.32416V8.32806Z" fill="white"/>
</svg>