<svg version="1.2" xmlns="http://www.w3.org/2000/svg" viewBox="0 0 1259 381" width="1259" height="381">
	<title>logo_white-svg</title>
	<style>
		.s0 { fill: #ffffff } 
	</style>
	<g id="Layer">
		<path id="Layer" class="s0" d="m311.1 34.4c-10.6 10.6-18.9 19.6-18.5 19.9 0.5 0.2 3.5 1.1 6.7 1.8 5.6 1.2 5.8 1.4 5.2 3.8-0.4 1.4-10.3 34.3-22.2 73.1-11.8 38.8-22.4 73.5-23.6 77.2-1.1 3.8-2.3 6.8-2.7 6.8-0.4 0-1.6-3-2.7-6.8-1.2-3.7-9.3-30.3-18.1-59.2-8.8-28.9-17.2-56.4-18.7-61.3l-2.6-8.7h-18c-9.8 0-17.9 0.2-17.9 0.6 0 0.5 49 155.6 54.1 171.1l3.1 9.3h17.3 17.4l2.4-7.8c11.6-37.4 59.1-188.8 59.4-189.2 0.2-0.2 3.3 0.4 6.9 1.4 3.7 0.9 6.7 1.6 6.9 1.4 0.4-0.5-13.6-51.2-14.4-52-0.4-0.4-9.4 7.9-20 18.6z"/>
		<path id="Layer" class="s0" d="m67.8 79.5c-24.5 4.6-40.1 18.1-44.4 38.4-3.8 18.3 0.7 35.6 12 45.8 9.6 8.6 22.5 13.5 49.6 18.8 25.2 5 36.1 9.8 40.7 18 6.8 12.1 2.2 28-9.9 33.9-11.6 5.7-32.2 5.8-44.4 0.2-6.6-3-13.7-10.2-16-16.1-1-2.8-2.3-4.5-3.3-4.5-0.9 0-7.4 1.5-14.6 3.4-12.7 3.2-13 3.3-12.8 5.9 0.3 5.1 6.7 16 12.8 22.3 7.3 7.4 16 12.4 28 16 8.5 2.6 10 2.8 29 2.8 17.4 0 21-0.3 27.6-2.1 21.6-6.1 34.8-17.9 39.5-35.7 1.8-6.5 1.8-22.6 0-29.1-4.1-15.6-15-26.8-32.6-33.8-8.1-3.2-10.9-3.9-29.5-7.7-28.5-5.8-38-10.3-41.4-19.3-1.8-4.7-1.3-13.6 1-18.4 6.3-13 32.4-18.1 53.3-10.3 7.4 2.8 13 7.9 16.6 15.4l3.2 6.3 9.6-2.4c5.3-1.3 12.1-3.1 14.9-3.9l5.3-1.4-1.9-5c-6.9-18.1-21.4-30.4-42.7-36.1-10.4-2.8-37.9-3.6-49.6-1.4z"/>
		<path id="Layer" class="s0" d="m405 81.6c0 0.3-8.8 28.9-19.6 63.7-10.8 34.8-20.3 65.4-21.1 68.2-1.9 6.1-1.7 6.5-7.9-15.5-2.5-9.1-4.9-16.8-5.3-17.3-0.4-0.4-7.5-0.6-15.8-0.5l-15 0.3 7.7 24.5c4.3 13.5 10.1 31.8 12.9 40.7l5.2 16.3h17.4 17.3l2.1-6.3c1.1-3.4 10.8-34.1 21.6-68.2 10.8-34.1 20.5-64.8 21.6-68.3l2.1-6.2h85.4 85.4v-16-16h-97c-53.3 0-97 0.2-97 0.6z"/>
		<path id="Layer" class="s0" d="m627 97v16h31 31v74.5 74.5h16.5 16.5v-90.5-90.5h-47.5-47.5z"/>
		<path id="Layer" class="s0" d="m743 97v16l20.3-0.2 20.2-0.3v-15.5-15.5l-20.2-0.3-20.3-0.2z"/>
		<path id="Layer" class="s0" d="m818 171.5v90.5h17 17v-75-75h20.8c22.9 0 29.3 1 37.2 5.8 6.7 4.1 10.2 10.5 10.8 19.7 0.7 10.7-1 15.8-7.2 22-6.8 6.8-12.9 8.7-29.8 9.4l-12.6 0.6 27.6 46.2 27.7 46.2 18.3 0.1c10.1 0 18.1-0.3 17.9-0.8-0.3-0.4-10-16.4-21.6-35.5-11.7-19.2-21.4-35.4-21.7-36-0.2-0.7 1.6-1.9 4.5-3 22-7.8 34.8-31.1 31.3-56.9-3.1-22.1-18.5-38.3-42.4-44.8-12.3-3.3-22.9-4-59.5-4h-35.3z"/>
		<path id="Layer" class="s0" d="m996 171.5v90.5h17 17l-0.2-90.3-0.3-90.2-16.7-0.3-16.8-0.2z"/>
		<path id="Layer" class="s0" d="m1062.8 83.7c1 1.6 13.5 19.4 27.7 39.8 14.2 20.3 27.1 38.9 28.7 41.1l2.9 4.1-34.6 46.4-34.7 46.4 19.2 0.3c10.6 0.1 19.4 0.1 19.5 0 0.1-0.2 30.6-40.2 67.9-89 37.2-48.9 67.9-89.5 68.2-90.3 0.5-1.3-1.8-1.5-17.4-1.5h-17.9l-22.5 31.2c-12.4 17.2-23.1 31.3-23.7 31.3-0.7 0-11-14-23-31l-21.8-31-20.2-0.3-20.3-0.2z"/>
		<path id="Layer" class="s0" d="m466.7 154.7c-0.4 0.3-0.7 24.6-0.7 54v53.3h67 67v-16-16h-50-50v-23-23h26 26v-15-15h-42.3c-23.3 0-42.7 0.3-43 0.7z"/>
		<path id="Layer" class="s0" d="m1172.2 206.3c-6.1 6.2-11.2 11.6-11.2 12 0 0.4 7 10.4 15.6 22.2l15.5 21.5h20.4 20.4l-24.2-33.4c-13.3-18.4-24.4-33.5-24.7-33.5-0.3-0.1-5.6 5-11.8 11.2z"/>
		<path id="C  A  P  T  C  H  A" class="s0" aria-label="C  A  P  T  C  H  A" d="m22.4 332.5q0.1-5.5 1.9-10.1 1.9-4.6 5.2-7.9 3.4-3.4 7.9-5.2 4.5-1.8 9.8-1.8 7.5 0 13.3 3.6 5.9 3.6 8.8 10.3l-7.9 2.3q-1.5-2.9-3.8-4.7-2.2-1.8-4.9-2.7-2.7-0.8-5.4-0.8-4.5 0-8 2.2-3.5 2.1-5.4 5.9-1.9 3.9-1.9 8.9 0 5 1.9 8.9 1.9 3.8 5.4 5.9 3.5 2.2 8 2.2 2.8 0 5.5-0.8 2.8-0.9 5.2-3 2.4-2.1 4.1-5.6l7.7 2.1q-3 7.7-8.9 11.5-6 3.8-13.7 3.8-5.3 0-9.8-1.8-4.5-1.8-7.9-5.2-3.3-3.4-5.2-7.9-1.9-4.6-1.9-10.1zm131.3 24.5l-14.4-41.1h-2.5l-14.4 41.1h-9.7l17.6-49h15.6l17.5 49zm-30.3-11.3v-7.9h28.5v7.9zm94-15.3h10.4q2.8 0 4.6-0.8 1.8-1 2.7-2.6 0.9-1.6 0.9-3.9 0-3.4-2.1-5.3-1.9-1.9-6.1-1.9h-10.4zm28.2-7.3q0 2.8-0.9 5.5-1 2.6-3.1 4.9-2.1 2.2-5.5 3.5-3.3 1.3-8 1.3h-10.7v18.7h-9.5v-49h20.2q5.9 0 9.8 2.1 3.9 2 5.8 5.5 1.9 3.5 1.9 7.5zm44.1-7.2v-7.9h39.7v7.9h-15.2v41.1h-9.4v-41.1zm83.6 16.6q0-5.5 1.9-10.1 1.8-4.6 5.2-7.9 3.4-3.3 7.8-5.2 4.6-1.8 9.8-1.8 7.6 0 13.4 3.7 5.9 3.5 8.8 10.2l-7.9 2.4q-1.5-3-3.8-4.8-2.3-1.8-4.9-2.7-2.7-0.8-5.4-0.8-4.5 0-8 2.2-3.5 2.1-5.5 5.9-1.8 3.9-1.8 8.9 0 5.1 1.8 8.9 2 3.8 5.5 5.9 3.5 2.2 8 2.2 2.8 0 5.5-0.8 2.8-0.9 5.2-3 2.4-2.1 4.1-5.6l7.7 2.1q-3 7.7-8.9 11.5-6 3.8-13.8 3.8-5.2 0-9.8-1.8-4.4-1.8-7.8-5.2-3.4-3.4-5.2-7.9-1.9-4.6-1.9-10.1zm94.5 24.5v-49h9.5v20.2h21.7v-20.2h9.4v49h-9.4v-20.9h-21.7v20.9zm126.1 0l-14.4-41.1h-2.5l-14.4 41.1h-9.8l17.6-49h15.6l17.6 49zm-30.4-11.3v-7.9h28.6v7.9z"/>
	</g>
</svg>
